<svg width="107" height="134" viewBox="0 0 107 134" fill="none" xmlns="http://www.w3.org/2000/svg">
<mask id="mask0_71_279" style="mask-type:luminance" maskUnits="userSpaceOnUse" x="49" y="16" width="43" height="64">
<path d="M49.0088 16.9832H91.5369V79.0104H49.0088V16.9832Z" fill="white"/>
</mask>
<g mask="url(#mask0_71_279)">
<path d="M70.9973 65.5618C71.035 65.6342 71.1144 65.7179 71.1052 65.7872C71.0412 66.2861 70.9189 66.77 70.7378 67.2389C70.5572 67.7083 70.3229 68.1488 70.0355 68.5613C69.7455 68.9878 69.3636 69.1796 68.8703 69.0561C67.8708 68.8064 67.0142 68.3173 66.4502 67.4214C66.0503 66.8041 65.7608 66.1393 65.5807 65.4264C65.088 63.3817 64.1741 61.4896 63.4166 59.5453C63.382 59.4594 63.3211 59.4021 63.2334 59.3731C63.1901 59.3752 63.1503 59.3876 63.1137 59.4103C63.0771 59.4331 63.0482 59.4631 63.0275 59.5008C62.7876 60.3507 62.0977 60.9602 61.818 61.7848C61.6214 62.3654 61.2555 62.7867 60.803 63.1951C59.7586 64.135 58.8401 65.2056 57.7591 66.1155C56.2662 67.3738 54.8276 68.6983 53.3255 69.9447C52.8368 70.35 52.536 70.7734 52.44 71.4042C52.2893 72.3957 52.1928 73.3919 52.15 74.3938C52.0927 75.6666 52.0288 76.9348 51.971 78.2117C51.9601 78.4474 51.876 78.6537 51.7197 78.83C51.4503 79.0326 51.2155 78.8894 50.9797 78.7576C50.7423 78.0457 50.8053 77.3127 50.8724 76.5925C51.0174 75.0478 51.2171 73.5077 51.6861 72.0225C52.0773 70.7843 52.2346 69.5425 52.0319 68.2465C51.9121 67.4834 51.9369 66.6987 51.875 65.9232C51.8244 65.2878 51.745 64.654 51.6732 64.0202C51.6376 63.7038 51.5803 63.389 51.5525 63.0721C51.4709 62.1208 51.4224 61.1686 51.3156 60.2184C51.1293 58.5485 51.5628 56.9573 52.1712 55.4146C52.2248 55.275 52.2924 55.1432 52.374 55.0181C52.456 54.893 52.5499 54.7782 52.6562 54.6733C52.7625 54.5683 52.8786 54.4758 53.0045 54.3957C53.1299 54.3155 53.2631 54.2494 53.4029 54.1977C53.7863 54.0529 54.181 53.9526 54.5871 53.8978C55.1671 53.8136 55.8632 54.1113 56.3122 53.7277C56.7312 53.3695 56.9303 52.747 57.2116 52.2321C57.6703 51.3931 58.128 50.553 58.5645 49.7015C58.8298 49.1835 58.773 48.6278 58.6038 48.0979C58.5062 47.782 58.3824 47.477 58.2317 47.1828C58.081 46.8887 57.9061 46.6095 57.7069 46.3464C57.5078 46.0827 57.2874 45.8382 57.0454 45.6133C56.8039 45.3884 56.5444 45.1863 56.2673 45.0069C56.0376 44.8647 55.8276 44.6982 55.6357 44.508C54.9401 43.791 54.227 43.0894 53.5118 42.39C53.2522 42.1361 52.9658 41.9086 52.6985 41.6641C52.1309 41.1399 51.5757 40.609 51.0514 40.0356C50.0158 38.9035 49.5947 37.5273 49.2815 36.0947C49.0638 35.1073 49.1582 34.0961 49.1468 33.0942C49.135 32.0923 49.1525 31.0863 49.1045 30.0854C49.0132 28.168 49.0859 26.2567 49.3233 24.3522C49.5607 22.4471 49.959 20.5767 50.5184 18.7409C50.6634 18.2632 50.8476 17.7969 51.0365 17.3353C51.1397 17.0845 51.5014 16.9806 51.7367 17.1171C52.5716 17.601 53.3487 18.1521 53.8554 19.0051C53.8781 19.0444 53.9003 19.0852 53.9225 19.124C54.9019 20.8667 56.049 22.521 56.7957 24.3992C57.0614 25.0702 57.4737 25.6865 57.8555 26.3058C58.3705 27.1175 58.7885 27.9767 59.11 28.8829C59.3169 29.4868 59.5532 30.0808 59.755 30.6861C60.1606 31.899 60.5182 33.1128 60.5909 34.412C60.6539 35.5468 60.8881 36.6707 61.0254 37.8018C61.1916 39.177 61.0595 40.5319 60.7359 41.8766C60.4031 43.2528 60.1038 44.6321 59.7973 46.0119C59.7183 46.367 59.658 46.7263 59.6095 47.0867C59.6126 47.1813 59.6502 47.2599 59.722 47.3219C59.7493 47.3462 59.8603 47.2914 59.9253 47.2578C59.965 47.2325 59.9949 47.1978 60.014 47.1549C60.8046 45.6185 61.6214 44.0944 62.3701 42.5368C62.6271 42.0022 62.8774 41.4692 63.1818 40.9605C63.463 40.4937 63.6958 39.9984 63.961 39.5213C64.1277 39.223 64.0905 38.9055 64.091 38.5871C64.091 36.985 64.2407 35.4035 64.719 33.8624C64.9631 33.0751 65.251 32.3193 65.6814 31.6115C66.1293 30.8728 66.4936 30.0865 66.9136 29.3286C67.4931 28.2801 68.2779 27.408 69.1644 26.6005C69.8724 25.9527 70.6588 25.4202 71.5226 25.0036C72.0546 24.7451 72.5582 24.4225 73.0944 24.1764C74.0851 23.7137 75.0888 23.2986 76.1853 23.1181C76.9908 22.9863 77.7761 22.7283 78.5693 22.5231C79.801 22.2026 81.0544 21.942 82.2654 21.545C84.6871 20.7556 87.1521 20.0752 89.4235 18.8758C89.6681 18.7507 89.9225 18.6504 90.1867 18.576C90.7801 18.3997 91.2569 18.7161 91.3932 19.3406C91.4938 19.8007 91.4375 20.2598 91.3302 20.6977C91.0717 21.759 90.8157 22.8271 90.4607 23.8574C90.1372 24.8076 89.7383 25.7247 89.2631 26.6088C87.7125 29.4506 85.7532 31.93 82.8398 33.5062C81.5936 34.1819 80.4687 35.0406 79.3562 35.9024C78.2607 36.7544 77.0372 37.3448 75.7818 37.8799C74.7781 38.3074 73.7528 38.6786 72.7378 39.0792C71.3255 39.6391 69.8796 40 68.344 39.8966C67.378 39.832 66.443 40.0207 65.5075 40.2414C65.2381 40.2983 64.9884 40.4022 64.7587 40.5542C64.5291 40.7062 64.3351 40.8949 64.1777 41.1208C64.0977 41.233 64.0152 41.3389 63.9378 41.4542C63.575 41.9805 61.9475 45.0431 61.6998 45.6696C61.2158 46.8995 60.6394 48.0834 59.9707 49.2223C59.4392 50.1224 59.013 51.085 58.5444 52.0207C58.3803 52.3464 58.2457 52.6876 58.0645 53.0019C57.4747 54.0307 57.4623 54.0524 58.6507 54.3429C59.9851 54.6692 61.3324 54.8191 62.7138 54.6143C63.8361 54.4484 64.96 54.3109 66.0921 54.1873C68.0968 53.9697 70.165 55.1474 70.9927 56.9924C71.2146 57.4877 71.472 57.9814 71.5231 58.5403C71.5443 58.7662 71.5871 58.9957 71.3936 59.1772H71.4081C71.2249 59.0815 71.1986 58.8918 71.1521 58.7181C70.9689 58.0553 70.6738 57.4412 70.3549 56.8306C70.2088 56.5437 70.019 56.2888 69.7868 56.0665C69.554 55.8437 69.2919 55.6659 68.9993 55.532C68.9338 55.5015 68.8435 55.5263 68.765 55.5247C68.7707 55.6131 68.7841 55.7005 68.8048 55.7863C68.8347 55.8732 68.875 55.9549 68.925 56.0319C69.7718 57.4267 70.1572 58.944 70.2434 60.572C70.3456 62.5323 70.327 64.4891 70.0122 66.4334C69.9777 66.6594 69.9555 66.8858 69.9457 67.1138C69.9524 67.2027 69.971 67.2885 70.0009 67.3723C70.1041 67.2947 70.2346 67.2373 70.3059 67.1365C70.505 66.877 70.6227 66.5849 70.6593 66.2603C70.6707 66.1217 70.7083 65.9909 70.7734 65.8684C70.8384 65.7459 70.9251 65.6409 71.0334 65.5546L70.9973 65.5618ZM58.0465 55.3733L58.1058 55.3624C56.9845 54.6836 55.7611 54.4329 54.4638 54.4851C53.9205 54.5068 53.5087 54.7591 53.2151 55.2027C53.0566 55.4265 52.9261 55.6659 52.8224 55.9197C52.3255 57.2489 51.9483 58.6064 52.0515 60.0457C52.165 61.6323 52.0855 63.2339 52.4302 64.8024C52.4663 64.9358 52.4792 65.0717 52.4694 65.2092C52.3291 66.4009 52.6407 67.5656 52.6794 68.7454C52.6748 68.8369 52.6831 68.9273 52.7037 69.0163C52.7357 69.0902 52.7842 69.1512 52.8487 69.1993C52.8647 69.2132 52.9385 69.1812 52.9705 69.1527C53.985 68.2423 54.9896 67.3252 56.1419 66.5834C56.9293 66.0798 57.6528 65.4972 58.3127 64.835C58.9732 64.1727 59.5537 63.4469 60.0553 62.6575C60.4175 62.0836 60.7942 61.4881 61.2798 61.0243C61.8944 60.436 62.2628 59.7448 62.5884 58.9838C62.7809 58.5325 62.7035 58.1851 62.431 57.8537C62.2344 57.6035 62.0094 57.3833 61.7556 57.192C61.1668 56.7645 60.5682 56.3467 59.9438 55.9714C59.3659 55.623 58.7415 55.3717 58.0465 55.3733ZM69.7775 34.8199C69.5422 35.3343 69.1211 35.6775 68.7073 36.0405C67.9528 36.7027 67.2758 37.4409 66.7954 38.3363C66.7351 38.448 66.6809 38.5995 66.8259 38.6993C66.9002 38.7541 66.9838 38.7742 67.0751 38.7587C67.9838 38.4346 68.9591 38.4568 69.8817 38.2128C71.9478 37.6669 74.0129 37.0997 76.0759 36.5559C77.0073 36.3108 77.8654 35.92 78.7039 35.4465C79.6962 34.8866 80.6034 34.2057 81.5487 33.5797C82.0394 33.2545 82.5312 32.8967 82.9218 32.4625C84.1076 31.1432 85.3858 29.9065 86.4286 28.458C87.6536 26.7545 88.8363 25.0304 89.7032 23.1083C90.0613 22.3163 90.3854 21.5036 90.4499 20.6398C90.517 19.7304 90.3668 19.1705 89.2125 19.671C88.8374 19.8338 88.47 20.0137 88.0984 20.1859C87.6861 20.3766 87.2682 20.5565 86.8621 20.7602C85.5111 21.4375 84.0606 21.8428 82.6334 22.3065C81.1658 22.7842 79.688 23.236 78.2008 23.6506C75.5919 24.3765 73.1506 25.4047 71.0928 27.2539C69.9488 28.2889 68.8652 29.3834 67.8409 30.5378C67.5411 30.8738 67.3249 31.276 67.1164 31.6886C66.6664 32.5865 66.3192 33.5145 65.9899 34.4627C65.5653 35.6817 65.3769 36.9312 65.233 38.2004C65.2025 38.4687 65.2464 38.7453 65.268 39.0172C65.2742 39.0937 65.3269 39.2354 65.3501 39.2307C65.4848 39.223 65.6148 39.193 65.7392 39.1408C65.9678 39.0394 66.0679 38.8347 66.0921 38.5964C66.1546 38.0975 66.2846 37.6167 66.4822 37.1545C67.2433 35.2448 68.6438 33.802 69.94 32.28C71.3167 31.2388 72.6707 30.1743 74.0707 29.1704C74.6569 28.7521 75.3261 28.4151 76.0914 28.429C76.2116 28.429 76.3886 28.4776 76.4386 28.5624C76.5604 28.7682 76.3277 28.7806 76.2317 28.7806C75.2276 28.8426 74.4128 29.3461 73.6434 29.9179C72.6599 30.6494 71.696 31.4084 70.7445 32.1833C69.2558 33.3998 68.1025 34.8928 67.2242 36.6003C67.1861 36.6727 67.2005 36.7751 67.1907 36.8645C67.2635 36.8371 67.3496 36.8283 67.4017 36.7803C68.0364 36.1997 68.6644 35.6072 69.2986 35.0231C69.4317 34.9 69.5834 34.7961 69.7842 34.8716L69.7775 34.8199ZM51.2754 18.2498C51.2129 18.3661 51.1624 18.4871 51.1232 18.6132C50.7852 19.8436 50.4503 21.0761 50.3553 22.3561C50.1866 24.6267 49.9781 26.8957 49.8693 29.1693C49.8063 30.484 49.7604 31.8075 50.0426 33.1216C50.3801 34.6937 50.8311 36.2038 51.7326 37.563C52.4122 38.5881 53.214 39.5233 53.9008 40.5402C54.9602 42.102 56.4107 43.2993 57.6099 44.7236C57.6817 44.7851 57.7632 44.8058 57.855 44.7856C57.903 44.7711 57.9417 44.6491 57.9448 44.5737C57.9913 43.3712 57.7193 42.2225 57.3788 41.0805C57.2678 40.7098 57.0815 40.3401 57.1749 39.9286C57.6414 40.1209 57.549 40.5821 57.6595 40.945C57.7389 41.2066 57.8318 41.4646 57.9195 41.7231C57.9603 41.842 57.9804 42.0002 58.1414 41.9986C58.3267 41.9986 58.3354 41.8265 58.3282 41.6982C58.2751 40.6969 58.2864 39.6862 58.1383 38.6987C57.8819 36.9865 57.547 35.2862 56.7503 33.7161C56.4835 33.1888 56.2177 32.6605 55.9535 32.1321C55.7683 31.7692 55.5779 31.4016 55.404 31.0299C55.3704 30.957 55.404 30.8557 55.404 30.7678C55.5242 30.8082 55.68 30.8149 55.7569 30.8971C55.9138 31.0635 56.0444 31.2486 56.1491 31.4523C56.8359 32.7861 57.5439 34.0982 57.8968 35.5912C58.1146 36.5212 58.418 37.4373 58.5057 38.3917C58.7152 40.6648 58.7833 42.9426 58.5057 45.2168C58.5021 45.3083 58.4887 45.3982 58.465 45.4866C58.3566 45.7906 58.5341 46.0083 58.6672 46.2456C58.7353 46.367 58.7921 46.5004 58.9516 46.4679C58.9934 46.4591 59.0284 46.3226 59.0357 46.2502C59.1879 44.5276 59.3767 42.8097 59.6358 41.1001C59.7725 40.199 59.9108 39.2979 60.029 38.3937C60.2854 36.4179 60.2287 34.4642 59.401 32.6176C58.3009 30.1609 57.4443 27.6076 56.4195 25.1214C55.6475 23.2489 54.7352 21.4773 53.566 19.8416C53.1181 19.2155 52.5773 18.6546 52.0587 18.0818C51.842 17.8398 51.5004 17.8833 51.2754 18.2498ZM65.5441 55.4684C65.5529 55.4529 65.5627 55.4379 65.572 55.4224C65.2923 55.2735 65.0131 55.1225 64.7314 54.9773C64.6948 54.9592 64.6421 54.9773 64.5972 54.9736C64.6014 55.0383 64.5802 55.1365 64.6153 55.1634C65.1463 55.5852 65.7242 55.9481 66.0648 56.5778C66.4053 57.2075 66.8305 57.8165 67.1654 58.4612C67.5782 59.2273 67.876 60.0359 68.0591 60.8873C68.0839 61.0088 68.0364 61.0802 67.9301 61.0569C67.8455 61.0414 67.7728 61.0031 67.7129 60.9416C67.6649 60.8635 67.635 60.7788 67.6221 60.6883C67.3171 59.4791 66.7051 58.4208 66.0467 57.3771C65.4105 56.371 64.5616 55.714 63.413 55.3443C62.7442 55.1262 62.1709 55.2714 61.5621 55.4167C61.4506 55.4436 61.4439 55.5552 61.5234 55.6302C61.6549 55.7553 61.7839 55.883 61.9243 55.9931C62.9171 56.8074 63.8304 57.7017 64.4347 58.8396C65.0343 59.9635 65.6117 61.1003 66.1422 62.2589C66.8052 63.7064 67.4002 65.1865 68.0483 66.6413C68.2506 67.0957 68.5215 67.5212 68.778 67.9482C68.8445 68.0598 68.9746 68.1539 69.1247 68.0862C69.2078 68.0526 69.2682 67.9952 69.3048 67.9135C69.4194 67.4736 69.5427 67.0336 69.6144 66.5854C69.9472 64.4612 70.0148 62.3287 69.8156 60.1879C69.6665 58.5237 69.0189 57.0162 68.0731 55.6483C67.9126 55.4208 67.7036 55.2533 67.4466 55.1468C67.0209 54.9917 66.5844 54.8754 66.138 54.7974C65.9249 54.7555 65.6308 54.7167 65.5137 54.9426C65.3764 55.212 65.6762 55.3004 65.8388 55.4307C65.9141 55.4803 65.9863 55.5335 66.056 55.5909C66.1148 55.6592 66.1675 55.7321 66.2139 55.8091C66.1417 55.8003 66.0539 55.8091 65.9967 55.7786C65.8398 55.6824 65.6943 55.5713 65.5441 55.4684ZM67.377 29.2872C67.4234 29.2035 67.377 29.282 67.3352 29.3596C66.796 30.4111 66.2805 31.4756 65.7118 32.5106C65.3496 33.164 65.1922 33.865 65.0147 34.5697C65.0028 34.6183 65.074 34.687 65.1065 34.7465C65.1731 34.6891 65.2727 34.6441 65.3016 34.5717C65.4987 34.0635 65.6762 33.5507 65.8713 33.0425C66.2603 32.0261 66.6097 30.9855 67.3687 30.1635C68.4173 29.0282 69.4364 27.8619 70.6495 26.8962C71.4648 26.2427 72.2435 25.5433 73.1408 25.0025C73.1955 24.97 73.1945 24.8438 73.2198 24.7601C73.1821 24.7601 73.1367 24.7425 73.1078 24.7601C72.2177 25.2145 71.2801 25.597 70.4524 26.1461C69.2702 26.9298 68.3517 28.0196 67.377 29.2872ZM49.6783 35.3637C49.7759 35.7696 49.8816 36.209 49.9874 36.6484C50.3564 38.1854 51.0747 39.5032 52.2976 40.5428C52.9498 41.0985 53.535 41.7339 54.1609 42.3212C54.2879 42.4396 54.4633 42.5058 54.6171 42.5957C54.7249 42.3925 54.5004 42.3388 54.437 42.2152C54.1888 41.7308 53.8487 41.311 53.5045 40.8887C52.8477 40.0832 52.2414 39.2369 51.602 38.4165C51.0695 37.7325 50.6268 37.0031 50.3455 36.1769C50.2325 35.8812 50.103 35.5933 49.957 35.3131C49.9441 35.2841 49.8842 35.2645 49.8502 35.2624C49.8161 35.2598 49.7908 35.295 49.6783 35.3637ZM67.8889 68.0381C67.7165 67.9373 67.7903 67.9963 67.8744 68.0247C67.9534 68.0412 68.0328 68.048 68.1133 68.0449C68.1133 67.9565 68.152 67.8531 68.1195 67.7807C67.7851 67.0357 67.4673 66.284 67.0932 65.5582C66.6169 64.6266 66.1432 63.7002 65.7887 62.7112C65.5709 62.1162 65.25 61.5609 64.9688 60.9907C64.8919 60.8346 64.8325 60.663 64.6313 60.6009C64.4564 60.5482 64.4651 60.7353 64.6545 61.1469C64.8821 61.6416 65.1241 62.1224 65.2691 62.658C65.5648 63.755 65.8862 64.8484 66.2712 65.9165C66.5421 66.6806 66.878 67.4436 67.8889 68.0381ZM89.6852 24.2891C89.4328 24.6582 89.2048 24.8971 89.0866 25.1814C88.5066 26.5834 87.5478 27.7384 86.649 28.9233C85.909 29.8926 85.0622 30.7735 84.265 31.6984C84.2222 31.7496 84.2299 31.8437 84.2139 31.9165C84.2588 31.9088 84.3021 31.8969 84.3444 31.8798C84.4693 31.825 84.587 31.7578 84.6984 31.6787C86.6882 30.043 88.2238 28.0594 89.2233 25.6756C89.3972 25.2734 89.5061 24.8407 89.68 24.2891H89.6852ZM74.2869 37.87C74.2962 37.8276 74.2982 37.7842 74.2941 37.7408C74.2869 37.7129 74.243 37.6684 74.2213 37.6684C73.7765 37.7568 73.3286 37.8333 72.89 37.9481C71.7012 38.2609 70.5143 38.584 69.3301 38.9164C68.8956 39.0384 68.8703 39.0736 68.9869 39.1956C69.1319 39.3455 69.3136 39.3202 69.4859 39.3041C69.8487 39.2716 70.2109 39.2369 70.5732 39.1733C71.8379 38.95 72.9788 38.3482 74.1904 37.9615C74.2281 37.9522 74.2549 37.9021 74.2869 37.87Z" fill="#142601"/>
</g>
<mask id="mask1_71_279" style="mask-type:luminance" maskUnits="userSpaceOnUse" x="21" y="71" width="49" height="57">
<path d="M21.6641 71.8638H69.0875V127.106H21.6641V71.8638Z" fill="white"/>
</mask>
<g mask="url(#mask1_71_279)">
<path d="M50.9797 78.7581C51.2156 78.8889 51.4503 79.0321 51.7197 78.831C51.8776 79.0234 51.8544 79.2503 51.8559 79.4793C51.8688 81.0768 51.8869 82.6716 51.9101 84.2639C51.9246 85.1883 52.2146 86.0573 52.4788 86.9295C52.5515 87.174 52.8002 87.2055 53.0144 87.0158C54.4117 85.7818 55.7915 84.5307 57.2178 83.3282C57.8499 82.7937 58.3778 82.1666 58.9237 81.5638C59.8422 80.5551 60.7184 79.5088 61.6003 78.4676C63.188 76.5931 64.5379 74.5355 66.1505 72.6821C66.5669 72.2039 66.9952 71.7702 67.633 71.9025C68.3187 72.0478 68.6124 72.6025 68.7739 73.286C69.0747 74.5525 69.0128 75.8228 68.9405 77.0971C68.8569 78.5534 68.7316 80.0077 68.6469 81.4635C68.5757 82.7843 68.392 84.0892 68.0969 85.378C67.8012 86.6673 67.3982 87.9215 66.8873 89.1411C65.5478 92.3003 63.8594 95.2595 61.8222 98.0191C61.4697 98.4957 61.0884 98.9471 60.6771 99.3741C58.7602 101.387 56.9345 103.473 55.4061 105.815C54.7915 106.759 54.5572 107.721 54.6713 108.792C54.8245 110.295 55.1212 111.768 55.5614 113.213C55.628 113.431 55.741 113.637 55.7786 113.858C56.0454 115.383 56.4913 116.864 56.6481 118.41C56.7369 119.268 56.9381 120.118 57.1363 120.961C57.5971 122.911 58.0687 124.86 58.8825 126.705C58.9124 126.772 58.8706 126.877 58.8458 126.96C58.837 126.99 58.7834 127.015 58.7457 127.028C58.708 127.042 58.6451 127.064 58.6136 127.047C58.3587 126.902 58.257 126.633 58.1564 126.387C57.5171 124.829 56.8927 123.265 56.2678 121.702C56.2028 121.531 56.1502 121.356 56.1104 121.178C55.3973 118.253 54.7337 115.319 54.403 112.319C54.3534 111.865 54.275 111.417 54.1682 110.972C54.017 110.348 53.8849 109.72 53.9365 109.08C53.9881 108.44 53.6924 108.037 53.2058 107.718C52.7868 107.443 52.3704 107.162 51.9323 106.919C51.6093 106.746 51.3121 106.536 51.0406 106.289C50.7687 106.043 50.5308 105.767 50.3265 105.462C49.4962 104.205 48.8517 102.877 48.4776 101.383C48.0581 99.7055 48.054 98.0248 48.2067 96.3549C48.3517 94.7311 48.6835 93.1099 49.5447 91.6649C49.7078 91.3915 49.8801 91.1149 49.9864 90.8171C50.1448 90.3761 50.3992 90.0349 50.7279 89.6979C51.8874 88.5088 51.9204 88.2627 51.3621 86.6865C51.3167 86.5572 51.2672 86.429 51.2109 86.3044C50.5097 84.7659 50.7119 84.8326 48.9756 85.272C47.959 85.5347 47.0545 86.0904 46.2361 86.7604C46.0266 86.9331 45.8078 87.0944 45.5838 87.25C45.5116 87.2841 45.4357 87.3063 45.3563 87.3156C45.3846 87.2314 45.3888 87.1228 45.4455 87.0675C45.7686 86.7516 46.0668 86.3887 46.4425 86.1535C47.2846 85.6277 48.0452 84.9417 49.0519 84.7246C49.1747 84.6977 49.2351 84.6393 49.1706 84.5524C49.1154 84.4847 49.0442 84.4485 48.9575 84.4428C48.4848 84.4428 48.0674 84.6294 47.684 84.8833C46.7753 85.4861 45.8583 86.0795 44.9765 86.7196C43.3959 87.8667 41.8427 89.0532 40.2658 90.205C39.9273 90.4376 39.5728 90.6413 39.2013 90.8161C38.8741 90.9825 38.5155 91.0906 38.581 91.5853C38.5903 91.6577 38.4257 91.787 38.3179 91.8438C38.1558 91.9307 37.9845 91.9906 37.8039 92.0237C36.3271 92.2657 34.8601 92.4595 33.3456 92.2264C31.6907 91.9767 30.1814 91.3687 28.7536 90.5664C27.8026 90.0329 27.0141 89.2496 26.3294 88.3884C25.9527 87.9303 25.6059 87.4516 25.2881 86.9512C24.8087 86.1643 24.1854 85.499 23.5558 84.8455C22.5011 83.7506 22.0594 82.3677 21.6868 80.9517C21.5996 80.6198 21.7823 80.3251 22.0873 80.1529C22.4175 79.9772 22.7694 79.9001 23.1425 79.9224C23.9645 79.9462 24.7736 80.0599 25.5703 80.2636C27.2639 80.6984 28.9786 80.8193 30.716 80.6265C32.2078 80.4559 33.6954 80.2749 35.1785 80.0454C35.5407 79.9896 35.8993 79.9343 36.2523 79.8495C37.2724 79.606 38.306 79.454 39.3525 79.393C40.3995 79.332 41.4433 79.363 42.4852 79.4866C43.5249 79.607 44.5662 79.6954 45.5895 79.9358C46.4889 80.1462 47.2934 80.4952 47.976 81.1595C48.5292 81.6966 49.1649 82.1454 49.6505 82.7569C49.7227 82.8495 49.8801 82.8779 50.0071 82.9405C49.8843 82.3372 49.7676 81.7613 49.6505 81.1848C49.859 81.2386 49.9952 81.1962 49.9828 80.9429C49.9746 80.7645 49.972 80.5851 49.9663 80.4063L50.2388 80.5241C50.3574 80.656 50.4859 80.7811 50.5917 80.9232C50.6691 81.0266 50.7047 81.1828 50.8714 81.1367C50.907 81.1269 50.9245 80.9915 50.923 80.9103C50.9116 80.368 50.8822 79.8257 50.8817 79.2824C50.876 79.1066 50.9431 78.9324 50.9797 78.7602V78.7581ZM58.0006 88.7999C57.7983 89.3215 57.6079 89.5883 57.3613 89.7739C56.9469 90.0846 56.6801 90.4997 56.4041 90.9174C55.5005 92.2926 54.7105 93.7132 54.2703 95.321C54.1032 95.93 53.9081 96.5405 53.7043 97.1361C53.0231 99.1084 52.8926 101.13 52.9994 103.189C53.019 103.324 53.0577 103.454 53.1145 103.578C53.1212 103.596 53.1872 103.608 53.2146 103.6C53.2419 103.592 53.3152 103.564 53.3209 103.534C53.4122 103.092 53.5263 102.651 53.5779 102.203C53.7683 100.557 54.2802 98.9941 54.8958 97.483C55.5464 95.9124 56.4004 94.4628 57.4588 93.1332C58.0759 92.3463 58.7436 91.5977 59.3391 90.7944C60.9393 88.6381 62.5492 86.4859 63.8491 84.1249C63.8867 84.0949 63.9285 84.0871 63.9744 84.1006C64.026 84.1631 64.1065 84.2551 64.09 84.3115C63.9621 84.7468 63.8723 85.1914 63.6019 85.576C62.4047 87.2996 61.2757 89.0749 60.0048 90.7421C59.0078 92.0491 58.0341 93.3694 57.1368 94.7415C56.5423 95.6607 56.0176 96.6186 55.5635 97.6148C55.1496 98.5293 54.8018 99.4687 54.5206 100.432C54.1806 101.563 53.9122 102.705 53.8488 103.908C53.8018 104.79 53.9463 105.74 53.4298 106.564C53.3885 106.651 53.3885 106.738 53.4298 106.826C53.4927 106.941 53.582 107.077 53.6929 107.12C53.7249 107.132 53.7579 107.136 53.792 107.134C53.8261 107.132 53.8586 107.123 53.8885 107.107C53.9189 107.091 53.9447 107.07 53.9664 107.043C53.9881 107.017 54.0031 106.987 54.0123 106.954C54.0851 106.693 54.1573 106.429 54.2126 106.162C54.3049 105.711 54.4726 105.29 54.7162 104.898C55.5619 103.486 56.5423 102.168 57.5723 100.889C58.3422 99.9329 59.2225 99.0655 59.964 98.0925C60.6601 97.1909 61.4119 96.3394 62.2205 95.5381C63.5978 94.1656 64.6071 92.5407 65.5369 90.8714C66.2655 89.5645 66.7336 88.1387 67.0303 86.6425C67.5633 83.9563 67.907 81.2407 68.2099 78.5214C68.3456 77.3023 68.3337 76.0652 68.3616 74.8359C68.3807 74.2356 68.2842 73.6546 68.0716 73.0931C67.9482 72.7762 67.7547 72.7188 67.4291 72.8755C67.0009 73.0787 66.7088 73.4157 66.425 73.7797C65.5555 74.8917 64.8104 76.0869 63.8594 77.1457C62.8877 78.2272 61.9259 79.3123 60.8928 80.3401C59.5698 81.6537 58.3246 83.0423 57.0847 84.4371C55.6961 85.9989 54.1697 87.4356 52.8131 89.031C51.0912 91.0544 49.8414 93.2805 49.7258 96.0137C49.7026 96.5602 49.6871 97.1087 49.6871 97.6562C49.6768 97.9302 49.7006 98.2011 49.7599 98.4694C50.0179 99.4387 50.2728 100.411 50.5865 101.362C51.0881 102.882 51.7151 104.347 52.664 105.652C52.7115 105.718 52.8085 105.805 52.8652 105.798C53.0448 105.763 52.9855 105.586 52.9741 105.483C52.9437 105.212 52.8756 104.945 52.8198 104.678C52.3848 102.595 52.3441 100.495 52.9334 98.4585C53.4499 96.6744 53.887 94.863 54.6842 93.1528C55.2735 91.8893 56.0764 90.8063 56.902 89.7211C57.1461 89.3872 57.5166 89.184 58.0006 88.7921V88.7999ZM29.5189 89.5986C30.5741 90.4387 31.7908 90.936 33.07 91.2907C33.505 91.4116 33.9684 91.4623 34.3926 91.6174C34.8044 91.7673 35.195 91.7492 35.5995 91.6593C37.3968 91.2607 39.0862 90.5953 40.5888 89.5226C41.4753 88.8898 42.2999 88.1712 43.1761 87.5235C44.3475 86.6575 45.5312 85.8087 46.7273 84.9763C47.3233 84.5602 47.9399 84.1719 48.6505 83.9599C48.9018 83.8871 48.8873 83.6472 48.667 83.4347C48.5891 83.3515 48.4977 83.2868 48.393 83.2414C48.2882 83.1959 48.1788 83.1731 48.0648 83.1726C47.5189 83.1726 46.9734 83.1633 46.428 83.1612C46.1101 83.1612 45.7918 83.1612 45.4739 83.1664C45.3578 83.1664 45.2969 83.109 45.3072 82.9927C45.3155 82.9544 45.3361 82.9234 45.3681 82.9007C45.4749 82.818 45.6659 82.7554 45.6808 82.6582C45.7216 82.3971 45.476 82.44 45.3186 82.4023C44.6055 82.2379 43.8846 82.1898 43.156 82.257C43.0946 82.2632 43.0074 82.1759 42.9584 82.1118C42.8923 82.028 42.9408 81.967 43.0626 81.9303C43.5998 81.7788 44.1411 81.785 44.6875 81.8755C45.1808 81.9556 45.6762 82.0301 46.1716 82.0932C46.2443 82.1019 46.3212 82.0389 46.3965 82.0089C46.3393 81.9365 46.2954 81.8471 46.2232 81.8047C45.0781 81.1404 43.8929 80.6001 42.5502 80.4507C41.463 80.3292 40.3804 80.2868 39.289 80.4295C38.1171 80.582 36.9422 80.7113 35.7672 80.8436C35.0479 80.9248 34.3121 80.9279 33.6082 81.0809C32.3156 81.3611 30.9993 81.2763 29.6984 81.4506C29.4765 81.4811 29.2449 81.435 29.0173 81.4325C27.6891 81.4149 26.4027 81.113 25.1101 80.8514C24.7535 80.779 24.4031 80.6694 24.0435 80.6229C22.9418 80.4776 22.5548 80.9367 22.9707 81.9479C23.2818 82.7037 23.6864 83.4218 24.0636 84.1486C24.8139 85.5931 25.9145 86.733 27.1803 87.724C27.43 87.9189 27.7071 88.0942 27.9115 88.3299C28.3764 88.8531 28.9569 89.216 29.5209 89.5934L29.5189 89.5986ZM51.0215 89.931C49.9962 91.3832 49.2821 92.7506 48.9719 94.2876C48.5055 96.5855 48.4544 98.884 48.9957 101.186C49.3161 102.521 49.8363 103.774 50.5571 104.942C50.9142 105.532 51.4534 105.959 51.9338 106.439C52.0164 106.521 52.1893 106.526 52.3224 106.539C52.3766 106.545 52.4906 106.447 52.4891 106.444C52.2754 106.043 52.0799 105.629 51.8245 105.256C51.488 104.765 51.2362 104.234 50.9854 103.698C50.3858 102.417 50.0112 101.06 49.5798 99.7205C49.0457 98.0599 49.1722 96.403 49.4235 94.7291C49.7078 92.8354 50.7388 91.2643 51.6124 89.626C51.7135 89.4358 51.924 89.306 52.0721 89.1385C52.6723 88.4633 53.2693 87.7861 53.8632 87.1052C53.887 87.0665 53.9035 87.0251 53.9133 86.9812C53.8493 86.9874 53.7874 87.0023 53.7275 87.0261C53.5712 87.1135 53.3864 87.1817 53.2734 87.3099C52.4679 88.2379 51.6774 89.1674 51.0236 89.93L51.0215 89.931ZM57.16 102.471C57.3391 102.351 57.4221 102.321 57.4681 102.261C58.3319 101.147 59.3525 100.174 60.2845 99.1234C61.0089 98.3086 61.655 97.4272 62.333 96.5736C62.4182 96.4666 62.4058 96.4035 62.3186 96.4139C62.2747 96.4222 62.2314 96.4346 62.1896 96.4506C61.8149 96.5617 61.6096 96.8709 61.3691 97.1464C60.4501 98.2145 59.5079 99.2645 58.6208 100.358C58.1131 100.983 57.5976 101.622 57.1631 102.464L57.16 102.471ZM49.0045 82.8867C48.6474 82.5155 48.4472 82.3356 48.28 82.1288C47.4776 81.1362 46.4425 80.5567 45.1906 80.354C45.0817 80.3365 44.914 80.2656 44.8924 80.413C44.8815 80.4854 45.059 80.6255 45.1751 80.6627C45.9615 80.9175 46.6143 81.4061 47.2985 81.8419C47.7913 82.1557 48.2944 82.4535 49.0045 82.8867Z" fill="#142601"/>
</g>
<mask id="mask2_71_279" style="mask-type:luminance" maskUnits="userSpaceOnUse" x="15" y="29" width="36" height="52">
<path d="M15.4854 29.9102H50.3295V80.5985H15.4854V29.9102Z" fill="white"/>
</mask>
<g mask="url(#mask2_71_279)">
<path d="M50.2329 80.5209L49.9604 80.4036C49.8392 80.2263 49.6885 80.0624 49.6023 79.8696C49.2994 79.1996 49.0187 78.5192 48.7328 77.842C48.3701 77.6967 48.1606 77.4113 48.0006 77.0691C47.6729 76.3681 47.2921 75.6898 47.0093 74.9697C46.2539 73.0481 45.0857 71.3534 44.1243 69.5456C44.0139 69.3393 43.856 69.1806 43.6501 69.0699C42.4906 68.4165 41.2899 67.9223 39.9199 67.9026C39.0107 67.8783 38.1056 67.8039 37.2041 67.6788C36.4368 67.5831 35.6979 67.3484 34.9708 67.0723C33.6065 66.5662 32.2809 65.9733 30.9939 65.2924C30.4144 64.9812 29.8246 64.808 29.2065 64.6643C28.852 64.5821 28.4918 64.5226 28.1357 64.4461C25.6052 63.9023 23.5556 62.5281 21.7052 60.7735C20.9498 60.0461 20.2666 59.2557 19.6551 58.4032C18.9616 57.452 18.4167 56.388 17.8485 55.3536C16.5549 52.993 16.0704 50.3854 15.5714 47.7856C15.5043 47.4387 15.6251 47.2774 15.9857 47.2324C16.5265 47.1595 17.073 47.0742 17.6132 47.0768C17.9806 47.0866 18.3315 47.1672 18.6659 47.3187C20.0375 47.9226 21.3956 48.5595 22.7584 49.186C22.8838 49.2403 23.005 49.3039 23.1206 49.3763C25.0515 50.6672 27.2518 51.2498 29.4738 51.7399C30.0347 51.8635 30.5739 52.2305 31.1936 52.0201C31.1601 51.4783 31.1265 50.937 31.0925 50.3968C31.4934 50.6915 31.5724 51.148 31.7009 51.5853C31.7767 51.8402 31.8732 52.0873 31.9909 52.3267C32.0115 52.3685 32.1549 52.3597 32.2416 52.3561C32.2762 52.3561 32.3366 52.3039 32.3376 52.2744C32.3428 52.1452 32.3639 52.0025 32.3206 51.8878C31.7153 50.2841 31.6405 48.5988 31.5414 46.9165C31.5197 46.5536 31.4429 46.1969 31.3897 45.8381C31.3711 45.7125 31.303 45.6856 31.1952 45.7657C31.1621 45.7895 31.1173 45.8236 31.1131 45.8572C31.0703 46.1705 30.9986 46.4859 31.0058 46.8012C31.0208 47.4376 31.0698 48.074 31.1265 48.7078C31.1565 49.0366 31.1523 49.3437 30.9392 49.6151C30.6064 48.7906 30.6425 47.9148 30.61 47.053C30.562 45.7756 30.6926 44.5115 30.8954 43.2481C31.1709 41.5338 31.658 39.8794 32.1276 38.2179C32.4491 37.1209 32.6379 36.0011 32.6942 34.8591C32.7551 33.3966 33.0213 31.9666 33.3464 30.5439C33.3825 30.4121 33.4326 30.2854 33.4976 30.165C33.5874 29.9814 33.7675 29.8744 33.9409 29.9406C34.7107 30.2456 35.4151 30.6582 35.9043 31.355C36.088 31.6161 36.2572 31.887 36.4115 32.1667C37.3362 33.8407 38.3006 35.4929 39.0298 37.2661C39.2888 37.8968 39.5504 38.5286 39.7548 39.1769C40.3946 41.174 41.0123 43.1762 41.3405 45.2565C41.6686 47.3368 41.8116 49.4238 41.5087 51.5155C41.3781 52.413 41.1402 53.2965 40.9287 54.1811C40.7909 54.7559 40.6387 55.3236 40.5969 55.9191C40.5123 57.0735 40.6475 58.1437 41.1924 59.2179C41.9106 60.6324 42.5784 62.083 43.0505 63.6143C43.293 64.3991 43.5629 65.1688 43.6594 65.9908C43.7022 66.3538 43.8147 66.7043 43.8612 67.0651C43.9561 67.808 44.2858 68.4398 44.6821 69.0612C46.5181 71.9438 48.1797 74.9221 49.5218 78.0705C49.7891 78.6971 50.0032 79.3479 50.2174 79.9952C50.2736 80.1539 50.2313 80.3447 50.2329 80.5209ZM35.8682 54.9984C35.3604 54.6898 34.8836 54.3227 34.3459 54.088C33.4708 53.7049 32.577 53.372 31.6647 53.0897C30.6229 52.7671 29.5527 52.5376 28.5011 52.2439C26.7472 51.7523 25.0335 51.1604 23.4235 50.2831C22.2641 49.6529 21.0881 49.063 19.894 48.5072C19.1437 48.1629 18.3594 47.936 17.541 47.8269C17.1788 47.7768 16.8016 48.0714 16.7897 48.4385C16.7696 48.713 16.7938 48.9834 16.8619 49.2501C17.0477 49.8602 17.2324 50.4785 17.5039 51.0523C18.2252 52.5769 18.861 54.1423 19.7382 55.5893C20.73 57.2245 21.7088 58.8731 23.1387 60.179C23.81 60.7921 24.4143 61.4787 25.1883 61.9786C27.3628 63.3817 29.7209 64.2424 32.2994 64.4963C33.0239 64.5692 33.7628 64.6002 34.46 64.7868C36.4827 65.3183 38.4828 65.9267 40.3987 66.787C41.2687 67.1778 42.1635 67.5201 43.0495 67.8762C43.179 67.9285 43.3307 67.9388 43.4153 67.8039C43.4478 67.7527 43.4189 67.626 43.3741 67.5707C43.0469 67.1726 42.8911 66.6913 42.7218 66.2209C42.0969 64.4596 41.4173 62.721 40.6655 61.0093C39.6005 58.5764 38.0622 56.5328 35.8682 54.9984ZM34.9006 31.1105C34.4295 30.7192 33.9708 30.8851 33.7979 31.5107C33.7494 31.6854 33.6617 31.8617 33.6612 32.0374C33.6571 33.5 33.4439 34.933 33.1648 36.3656C33.0507 36.9466 32.9584 37.5272 32.8149 38.1011C32.2623 40.3132 31.8263 42.5455 31.8588 44.8414C31.8959 47.3999 32.0636 49.9398 32.946 52.3789C33.0182 52.5779 33.0956 52.6772 33.285 52.7253C34.1179 52.9388 34.928 53.219 35.7149 53.5653C36.6009 53.9515 36.5849 53.9283 36.5354 52.8752C36.4688 51.4654 36.4347 50.054 36.4136 48.6422C36.3878 46.9119 36.3878 45.1805 36.3811 43.4502C36.3857 43.3137 36.4048 43.1788 36.4384 43.0464C36.442 43.0289 36.5194 43.0196 36.5632 43.0201C36.6066 43.0211 36.6659 43.0304 36.6773 43.0552C36.7335 43.1726 36.8145 43.2977 36.815 43.4181C36.815 44.4175 36.783 45.4173 36.7985 46.4161C36.8181 47.6909 36.8181 48.9668 36.8455 50.2417C36.8816 51.4711 36.99 52.6942 37.1695 53.9107C37.2119 54.2131 37.3197 54.4251 37.5622 54.5802C38.104 54.926 38.5777 55.3484 38.9844 55.8467C39.0674 55.9491 39.2016 56.0101 39.3125 56.0877C39.4235 56.1652 39.5871 56.0737 39.6025 55.9424C39.649 55.4885 39.7088 55.0356 39.73 54.5812C39.8141 52.7656 39.8425 50.9407 39.973 49.1261C40.1134 47.1657 40.0886 45.2115 40.036 43.2527C40.0081 42.1045 39.8208 40.9832 39.474 39.8888C38.585 37.0945 37.2846 34.4931 35.7159 32.0209C35.4925 31.674 35.2211 31.3716 34.9006 31.1126V31.1105ZM32.6323 65.4827C32.736 65.5669 32.8464 65.6408 32.963 65.7055C34.2814 66.2959 35.605 66.8785 37.0441 67.1189C37.7108 67.23 38.3822 67.32 39.054 67.4027C39.2346 67.4125 39.4137 67.4011 39.5917 67.3681C39.6784 67.351 39.7635 67.3267 39.8461 67.2957C39.7893 67.2311 39.7455 67.138 39.6743 67.1054C37.9043 66.2933 36.0157 65.8363 34.1664 65.2728C33.6932 65.1275 33.1932 65.0546 32.6931 65.1787C32.6529 65.1885 32.5899 65.2288 32.5899 65.2557C32.5956 65.3338 32.6096 65.4098 32.6323 65.4847V65.4827ZM40.5793 53.2841C40.6118 53.1719 40.6521 53.0427 40.6867 52.9119C41.4297 50.2148 41.294 47.5069 40.7883 44.7933C40.7636 44.6625 40.7192 44.6051 40.6289 44.6837C40.567 44.7478 40.5344 44.8243 40.5314 44.9132C40.5236 45.5041 40.5437 46.095 40.5241 46.6854C40.4555 48.7301 40.3745 50.7742 40.3002 52.8183C40.2955 52.9538 40.3126 53.0902 40.3188 53.2267C40.3244 53.3632 40.3698 53.4056 40.4539 53.372C40.4983 53.3482 40.5401 53.3203 40.5793 53.2888V53.2841ZM22.9684 61.2326L23.5169 61.443C23.5469 61.1804 23.3038 61.1225 23.1655 60.9943C22.9999 60.8412 22.7641 60.7518 22.6299 60.5791C21.49 59.1089 20.2774 57.6872 19.3868 56.0411C18.8243 55.0051 18.3222 53.9324 17.7882 52.8762C17.7242 52.7563 17.6504 52.6431 17.5663 52.5366C17.5482 52.5117 17.4858 52.5107 17.4466 52.5174C17.4079 52.5241 17.3666 52.5536 17.3656 52.5753C17.3506 52.9046 17.4605 53.2029 17.6055 53.4904C18.1195 54.5067 18.6432 55.5133 19.1463 56.5328C19.7568 57.772 20.6412 58.8095 21.5525 59.8249C22.0055 60.3294 22.5143 60.7849 22.9705 61.2372L22.9684 61.2326ZM37.2459 55.0289C37.2542 55.0346 36.9848 54.8666 36.7124 54.7032C36.669 54.6872 36.6246 54.6789 36.5787 54.6789C36.5787 54.7409 36.557 54.8242 36.5885 54.8598C36.8666 55.1597 37.137 55.4699 37.442 55.7397C38.8915 57.0244 40.0061 58.5562 40.8389 60.301C40.956 60.5471 41.0871 60.7854 41.2326 61.0155C41.2667 61.0677 41.3869 61.0656 41.4664 61.0884C41.4746 61.046 41.4746 61.0036 41.4664 60.9612C41.1459 60.2142 40.8518 59.4501 40.4937 58.718C39.8084 57.2963 38.7939 56.145 37.2495 55.0335L37.2459 55.0289Z" fill="#142601"/>
</g>
<path d="M71.387 59.1787C71.5769 59.2759 71.5697 59.463 71.596 59.6368C71.8612 61.4389 71.5852 63.2158 71.3204 64.9895C71.29 65.1922 71.1084 65.3716 70.9974 65.5618H71.0315C70.9061 65.4713 70.8865 65.3436 70.9169 65.2072C71.2792 63.3791 71.3628 61.5341 71.2482 59.6776C71.2374 59.4935 71.2595 59.3178 71.4015 59.1803L71.387 59.1787Z" fill="#142601"/>
<path d="M48.7303 77.842C49.0203 78.5193 49.3 79.1996 49.5998 79.8696C49.6864 80.0625 49.8371 80.2263 49.9579 80.4037C49.9635 80.582 49.9661 80.7614 49.9749 80.9403C49.9868 81.1936 49.8505 81.2355 49.6421 81.1817C49.268 80.2636 48.8902 79.3454 48.5218 78.4226C48.4279 78.1822 48.5218 77.9863 48.7303 77.842Z" fill="#142601"/>
<path d="M68.5941 30.2561C68.8165 29.8838 69.09 29.5535 69.414 29.265C69.7376 28.9765 70.0967 28.7429 70.492 28.565C70.5358 28.5526 70.5802 28.5474 70.6261 28.5495C70.6138 28.6338 70.6323 28.7537 70.5833 28.7966C70.2453 29.0949 69.9171 29.4149 69.5394 29.6558C69.0477 29.9712 68.8026 30.436 68.5977 30.9447C68.5301 31.1132 68.5249 31.3412 68.4099 31.4487C68.1271 31.7082 68.252 32.2262 67.8041 32.3586C67.6869 31.9316 67.9351 31.5707 68.0533 31.1969C68.1632 30.8635 68.4088 30.5704 68.5941 30.2561Z" fill="#142601"/>
<path d="M69.7918 34.868C70.1995 34.0729 70.8956 33.5688 71.6036 33.086C71.8972 32.8864 72.134 32.5504 72.5602 32.6119C72.4632 33.0208 72.053 33.0911 71.7888 33.3202C71.2093 33.8201 70.6216 34.3029 70.0292 34.7837C69.9719 34.8302 69.862 34.8101 69.7764 34.8199L69.7918 34.868Z" fill="#142601"/>
<path d="M52.67 34.1234C53.2113 34.8327 53.5467 35.6743 53.9745 36.4653C54.1319 36.7558 54.0968 36.9662 53.9482 36.868C53.8383 36.8013 53.749 36.7129 53.6804 36.6038C53.2253 35.7777 52.781 34.9454 52.3351 34.1136C52.3207 34.0701 52.3135 34.0257 52.3135 33.9807C52.395 33.9931 52.4755 34.0102 52.5555 34.0319C52.5973 34.0453 52.6251 34.0857 52.67 34.1234Z" fill="#142601"/>
<path d="M58.0467 55.3732C58.3037 55.5185 58.3022 55.7408 58.1721 55.9491C58.0307 56.1761 57.7877 56.3498 57.6819 56.5886C57.1458 57.7911 56.5152 58.9533 56.139 60.224C55.9461 60.8775 55.7299 61.5221 55.5673 62.1844C55.5173 62.3906 55.574 62.6615 55.9295 62.4547C56.0291 62.3963 56.1045 62.493 56.0544 62.5897C55.3351 63.9643 54.9455 65.4713 54.3242 66.8852C54.2783 67.0098 54.2128 67.123 54.1282 67.2249C54.0807 67.2735 53.9615 67.26 53.8748 67.2585C53.8433 67.2585 53.7835 67.2135 53.7845 67.1856C53.7886 66.9592 53.7628 66.7219 53.8206 66.5084C54.0951 65.4977 54.2902 64.4472 54.7092 63.498C55.2283 62.3224 55.3815 61.0356 55.9497 59.888C56.3006 58.2042 57.1587 56.766 58.1025 55.3613L58.0467 55.3732Z" fill="#142601"/>
<path d="M54.754 56.3017C54.8128 56.2418 54.8391 56.1989 54.8773 56.1782C54.9501 56.1404 55.0538 56.0712 55.1023 56.0965C55.1756 56.1539 55.2101 56.2288 55.2055 56.3224C55.1941 56.4589 55.1585 56.5892 55.0987 56.7127C54.3185 58.2993 54.0114 59.9847 54.0419 61.7408C54.0414 61.9202 54.03 62.0986 54.0083 62.2769C54.0083 62.3007 53.9413 62.3255 53.901 62.3348C53.8613 62.3442 53.8035 62.3348 53.7999 62.3188C53.7658 62.1896 53.7374 62.0577 53.7163 61.9254C53.4077 60.0136 53.7999 58.2223 54.6265 56.4992C54.6632 56.4294 54.706 56.3638 54.754 56.3017Z" fill="#142601"/>
<path d="M52.67 92.4378L53.5142 90.9215C53.6499 90.677 53.845 90.4976 54.0999 90.3829C54.1463 90.371 54.1897 90.3777 54.2304 90.4041C54.2485 90.4149 54.2542 90.4764 54.2402 90.5069C54.184 90.6284 54.1215 90.7478 54.0539 90.8636C53.3893 91.9948 52.7077 93.1146 52.0632 94.2602C51.6865 94.9297 51.3898 95.6296 51.3986 96.4382C51.3986 96.7882 51.2536 97.1402 51.1669 97.4897C51.1612 97.5145 51.0941 97.5342 51.0492 97.5352C51.0219 97.5352 50.9713 97.5057 50.9677 97.483C50.9398 97.3062 50.8898 97.1253 50.9053 96.95C51.0167 95.6229 51.3588 94.3677 52.1163 93.2474C52.348 92.9062 52.5787 92.5717 52.67 92.4342V92.4378Z" fill="#142601"/>
<path d="M35.7705 82.4111C35.7808 82.3728 35.7777 82.3175 35.8025 82.2994C35.9475 82.1913 35.7303 82.1469 35.8938 82.2151C36.8309 82.6116 37.8505 82.4938 38.8145 82.7052C38.8413 82.7109 38.8645 82.774 38.8717 82.8143C38.8769 82.8505 38.8676 82.882 38.8428 82.9094C38.8077 82.9399 38.767 82.958 38.7205 82.9637C37.7639 83.0475 36.8325 82.9317 35.9258 82.6153C35.8556 82.591 35.8216 82.4809 35.7705 82.4111Z" fill="#142601"/>
<path d="M39.7863 63.3558C38.551 61.3132 37.2919 59.6527 35.4807 58.4109C33.508 57.0585 31.4156 56.0147 29.1281 55.3463C29.0554 55.3251 29.0033 55.2279 28.9553 55.1576C28.9078 55.0873 29.1519 54.9503 29.2577 54.9886C30.5797 55.4626 31.9806 55.732 33.1711 56.54C33.4704 56.7427 33.8104 56.8864 34.1371 57.0482C35.0865 57.5109 35.893 58.1628 36.6898 58.8519C37.9819 59.9691 38.9685 61.3132 39.8545 62.7535C40.499 63.7999 41.1904 64.8168 41.855 65.8497C41.951 66.0032 42.0289 66.1656 42.0888 66.3362C42.129 66.4468 42.0687 66.5171 41.9722 66.5171C41.9288 66.5171 41.8684 66.5228 41.8452 66.499C41.7209 66.3703 41.6032 66.2348 41.4923 66.0937C40.2662 64.4962 38.8833 63.0647 37.1671 61.9822C36.6696 61.6674 36.2057 61.2988 35.73 60.9493C35.7006 60.9286 35.7021 60.865 35.6887 60.8211C35.7279 60.8211 35.7728 60.7983 35.8033 60.8123C35.9292 60.8624 36.0499 60.9234 36.1655 60.9943C37.1144 61.6234 38.0593 62.2577 39.0082 62.8874C39.1898 63.0079 39.3869 63.1154 39.7863 63.3558Z" fill="#142601"/>
<path d="M34.0028 52.4343C33.9662 52.3992 33.912 52.3723 33.9074 52.3397C33.7459 51.1315 33.5931 49.9234 33.5967 48.6997C33.5967 47.8157 33.9058 47.019 34.249 46.2311C34.3124 46.0859 34.509 45.9975 34.6504 45.8904C34.6912 45.8672 34.7325 45.8656 34.7748 45.8863C34.8305 45.9385 34.9198 46.0187 34.9069 46.0698C34.8625 46.288 34.8243 46.5232 34.717 46.714C34.0921 47.8327 34.0483 49.03 34.1561 50.2718C34.2149 50.9449 34.1757 51.6268 34.1773 52.3051C34.1757 52.3459 34.1587 52.379 34.1272 52.4043C34.0875 52.4214 34.0462 52.4312 34.0028 52.4343Z" fill="#142601"/>
</svg>
