<svg width="143" height="178" viewBox="0 0 143 178" fill="none" xmlns="http://www.w3.org/2000/svg">
<mask id="mask0_71_256" style="mask-type:luminance" maskUnits="userSpaceOnUse" x="49" y="90" width="20" height="69">
<path d="M49.2559 90.5381H68.146V158.583H49.2559V90.5381Z" fill="white"/>
</mask>
<g mask="url(#mask0_71_256)">
<path d="M51.8249 93.8946C51.0967 93.758 50.5608 92.9202 50.8291 92.1201L50.8539 92.0473L50.9408 91.9965C51.5449 91.6744 52.3352 91.7555 52.8773 92.2568L52.8959 92.276L52.9207 92.3186C53.4752 93.1935 53.1821 94.4152 52.2421 94.9721C51.2774 95.4933 50.0257 95.1472 49.465 94.1295L49.4092 94.0251L49.4154 93.85C49.4402 92.7835 49.9009 91.7486 50.6608 90.9747L50.9594 90.6636L51.3767 90.8442C52.8835 91.4952 54.1165 92.7409 54.851 94.1357C55.6289 95.5311 56.0275 97.0371 56.3013 98.5136C56.8054 101.508 56.8799 104.421 57.5909 107.279C58.8977 113.045 61.7493 118.278 64.0781 123.734C66.3635 129.171 68.2986 135.061 68.0993 141.162C67.8952 147.225 66.2325 153.004 64.2898 158.582L64.1333 158.546C65.1857 152.725 66.5373 146.94 66.4753 141.149C66.4622 135.37 64.8939 129.717 62.8699 124.192C60.9155 118.637 58.7239 113.12 56.9998 107.435C56.0764 104.601 55.6482 101.594 54.9882 98.7924C54.3469 96.0201 53.3131 93.1866 50.8415 92.0089L51.5574 91.8791C50.9905 92.3996 50.6298 93.1502 50.5298 93.9248L50.4802 93.6522C50.6236 94.0931 51.3456 94.3959 51.8187 94.1659C52.3042 93.9695 52.5842 93.1935 52.3228 92.6661L52.3732 92.7347C52.1242 92.4058 51.576 92.2458 51.1463 92.4189L51.2587 92.2946C51.0222 92.7602 51.2774 93.5156 51.8684 93.7394L51.8249 93.8946Z" fill="#142601"/>
</g>
<path d="M46.1339 85.8528C45.5732 84.9483 45.0505 84.0927 44.4216 83.4355C43.7926 82.779 43.0396 82.382 42.2423 82.2076C41.4762 81.9851 40.4866 82.2007 39.9383 83.0324C39.3846 83.8386 39.4218 84.9099 39.8018 85.7786C40.63 87.5023 41.9686 88.9588 43.4878 90.0878C44.9815 91.2717 46.7063 92.1652 48.7048 92.8093L48.6986 92.9714C46.5752 93.3367 44.2843 92.7159 42.4727 91.4523C41.5638 90.813 40.81 89.9704 40.188 89.0591C39.5528 88.1595 39.0922 87.1115 38.9549 85.9956C38.8053 84.8803 38.9797 83.7452 39.4963 82.7721C39.7521 82.2879 40.0942 81.8038 40.5921 81.4453C41.0969 81.0917 41.7313 80.887 42.3672 80.8932C43.6306 80.9124 44.7636 81.7118 45.3925 82.6787C46.0401 83.647 46.2704 84.7437 46.2891 85.8102L46.1339 85.8528Z" fill="#142601"/>
<path d="M53.1693 92.5172C52.6093 91.0366 52.3287 89.4558 52.2914 87.8619C52.279 86.2192 52.3852 84.9096 51.7314 83.7085C51.0529 82.4628 50.0936 81.147 48.9543 80.1485C47.8027 79.1329 46.4331 78.3884 45.0387 77.7869L45.8166 77.4579C45.4118 79.9453 46.52 82.5246 47.0117 85.2399C47.2986 86.5653 47.4979 87.9862 47.7344 89.2635C47.9896 90.5222 48.382 91.8298 49.6267 92.4375L49.5833 92.592C48.8612 92.5426 48.1454 92.1031 47.6654 91.5256C47.1862 90.9425 46.8441 90.2791 46.5696 89.6048C46.0717 88.2272 45.7421 86.9574 45.3869 85.6115C45.0449 84.2716 44.758 82.9511 44.5401 81.5371C44.3346 80.1485 44.2415 78.6054 44.7766 77.1791L45.0387 76.4917L45.5614 76.844C46.8813 77.7505 48.0765 78.7785 49.2723 79.7901C50.4488 80.8435 51.7059 81.7417 52.7707 83.0513C53.319 83.7085 53.6486 84.6624 53.6858 85.5112C53.7176 86.3669 53.63 87.1559 53.5555 87.8983C53.4245 89.4001 53.3624 90.9192 53.3252 92.4932L53.1693 92.5172Z" fill="#142601"/>
<path d="M50.3301 90.9364C49.8632 90.3987 49.7205 90.0251 49.8198 89.5987C49.9067 89.3872 50.1377 89.1448 50.1563 88.9161C50.1749 88.6798 50.0315 88.4766 49.8446 88.3021C49.4274 87.967 49.2033 87.6319 49.0171 87.2734C48.8985 86.8703 48.855 86.448 48.9729 85.7715L49.0978 85.6733C49.795 85.7228 50.2494 86.0895 50.5418 86.5228C50.7659 86.9877 50.8721 87.5275 50.6915 88.0844C50.617 88.3571 50.5666 88.6064 50.6666 88.835C50.7473 89.0589 51.028 89.2745 51.1459 89.53C51.2956 90.0251 51.1087 90.578 50.4922 90.9618L50.3301 90.9364Z" fill="#142601"/>
<path d="M42.9707 86.6719C43.6865 87.0001 44.0603 87.3476 44.2596 87.8558C44.3279 88.1291 44.2906 88.4999 44.4403 88.7479C44.5768 89.0033 44.8513 89.14 45.1437 89.2258C45.7602 89.3687 46.2209 89.5987 46.6691 89.859C47.0863 90.1811 47.4594 90.5588 47.8518 91.216L47.8022 91.3712C47.0863 91.6809 46.3953 91.5758 45.8099 91.3155C45.2561 90.9873 44.7761 90.5162 44.5458 89.8652C44.4216 89.5479 44.2906 89.2698 44.0479 89.083C43.8175 88.8907 43.4251 88.811 43.1638 88.6064C42.7031 88.1586 42.5224 87.4719 42.821 86.7275L42.9707 86.6719Z" fill="#142601"/>
<path d="M74.3562 35.2186C75.7078 34.0965 77.2015 33.1358 78.8015 32.3728C79.5987 31.9951 80.4214 31.6662 81.2675 31.3874C82.0709 31.158 83.0302 30.7055 84.0502 31.2384C84.517 31.511 84.8108 32.0878 84.7977 32.6022C84.8039 33.1173 84.6543 33.5822 84.4681 34.01C84.0757 34.8842 83.5336 35.5538 83.0799 36.2975L80.209 40.6932L74.463 49.4717C73.5038 50.9159 72.5445 52.4363 71.2997 53.7747C70.0915 55.1138 68.4289 56.3108 66.4427 56.5395L65.509 56.6459L65.7462 55.7285C67.4648 49.0878 69.4888 42.5158 71.9356 36.0997C72.5142 34.512 73.2231 32.857 73.7458 31.3441C73.9769 30.5935 74.0886 29.8127 73.8955 29.2297C73.7093 28.6466 73.1741 28.2813 72.4818 28.238C71.0508 28.1447 69.5557 29.1123 68.2744 30.1101C66.9724 31.1518 65.7959 32.3859 64.5015 33.5513C63.2188 34.7043 61.7554 35.8449 59.9624 36.2851C59.0845 36.5269 58.1266 36.5207 57.2542 36.3847C56.3701 36.2419 55.5426 35.9878 54.7199 35.8017C53.9047 35.6094 53.0765 35.492 52.2917 35.6217C51.5076 35.7522 50.7911 36.1615 50.2435 36.7439C49.1229 37.9285 48.7367 39.6645 49.0174 41.2825C49.2912 42.9182 50.0753 44.4503 51.0221 45.8451C51.9745 47.2405 53.1137 48.5116 54.3778 49.6461C56.8991 51.9336 59.7996 53.7617 62.7084 55.5726L62.3657 56.0636C59.8568 54.2335 57.2977 52.4665 54.695 50.7751C53.3875 49.9304 52.0738 49.1002 50.7476 48.2939C49.4153 47.5008 48.1078 46.6328 46.7382 46.0882C45.3686 45.523 43.8742 45.3994 42.6418 46.0374C41.3777 46.6328 40.7923 47.9849 41.2846 49.2499C41.726 50.532 42.8784 51.4447 44.2293 52.0085C45.5803 52.5778 47.1182 52.9809 48.5933 53.465C51.5635 54.3763 54.5268 55.2807 57.5397 55.9441C59.0348 56.2854 60.5216 56.5711 61.8174 56.2682C62.1409 56.1934 62.4409 56.0869 62.7195 55.9331C63.0195 55.771 63.3622 55.5431 63.8098 55.3494C64.2215 55.1571 64.9801 54.9717 65.6393 55.3679C66.3014 55.7841 66.5179 56.4282 66.5496 56.9934C66.5993 58.2522 65.7145 59.1697 64.7442 59.5405C64.2449 59.7328 63.647 59.7884 63.0691 59.603C62.4905 59.4361 61.9912 58.9884 61.7299 58.4809C61.2202 57.4583 61.3251 56.3046 62.0361 55.381C62.8395 54.4079 64.2339 54.3399 65.1421 54.754C66.0765 55.1269 66.8241 55.9441 67.1903 56.7826C67.5765 57.6252 67.7199 58.4809 67.8378 59.2617L68.504 63.8751L71.1494 82.3131C71.5735 85.3876 72.0149 88.4511 72.3707 91.5633C72.7321 94.6694 72.7817 97.8991 72.259 101.018C71.7728 104.137 70.9391 107.137 70.2667 110.157C69.575 113.169 68.9833 116.213 68.4861 119.271C67.5075 125.383 66.762 131.545 66.4558 137.746L66.3014 137.74C66.3869 131.528 66.7669 125.303 67.6703 119.146C68.1116 116.064 68.6406 112.99 69.264 109.939C69.8812 106.883 70.646 103.876 71.0508 100.845C71.9783 94.793 70.3846 88.6859 69.5688 82.5418L66.8544 64.11L66.1752 59.511C65.9697 58.0091 65.5469 56.7139 64.4952 56.2916C63.9967 56.0746 63.5229 56.168 63.3063 56.4344C63.045 56.727 62.9698 57.3649 63.1753 57.7248C63.3491 58.0778 63.7098 58.1952 64.1828 58.0407C64.6497 57.8793 65.0056 57.4137 64.9683 57.0793C64.9732 56.8808 64.8552 56.7139 64.838 56.7201C64.8063 56.6947 64.7118 56.6714 64.4201 56.7826C64.1463 56.8932 63.8415 57.0916 63.4546 57.2963C63.045 57.514 62.6015 57.6678 62.1664 57.7681C60.3865 58.1458 58.7238 57.7426 57.2032 57.4013C54.1351 56.6823 51.1276 55.7649 48.1705 54.7732C46.6947 54.2527 45.2127 53.8489 43.6997 53.1793C42.2184 52.529 40.6992 51.3513 40.1578 49.6207C39.8771 48.7843 39.8585 47.7926 40.2509 46.9308C40.6371 46.0751 41.3653 45.442 42.1563 45.0643C43.75 44.2704 45.6424 44.5121 47.1119 45.1645C48.6312 45.8087 49.907 46.7131 51.2269 47.5324C52.5469 48.375 53.8482 49.2368 55.1378 50.1117C57.7211 51.8649 60.2492 53.6937 62.7264 55.5856L62.3836 56.0808C59.4955 54.2396 56.5756 52.3683 54.0289 50.0245C52.7524 48.8591 51.6007 47.5447 50.6173 46.1184C49.6394 44.6989 48.7988 43.1229 48.4877 41.369C48.1574 39.6391 48.556 37.6867 49.8077 36.3408C50.418 35.6712 51.2704 35.1692 52.18 35.0147C53.0951 34.8595 54.0102 34.9769 54.8633 35.1445C56.5625 35.5229 58.1949 35.9816 59.7569 35.5043C61.314 35.0765 62.6402 34.01 63.8532 32.857C65.08 31.6971 66.2372 30.4143 67.5827 29.2729C68.2682 28.7153 68.9771 28.1632 69.7929 27.7484C70.5901 27.2952 71.537 26.9855 72.5569 27.0225C73.5783 27.0225 74.7548 27.7168 75.1037 28.7957C75.483 29.856 75.2602 30.8545 75.0161 31.7225C74.4375 33.4517 73.7969 34.9398 73.2169 36.5763C70.888 42.98 68.784 49.4717 67.0041 56.0574L66.3055 55.2512C67.8503 55.0891 69.2578 54.1483 70.3908 52.9259C71.5432 51.7104 72.4818 50.2662 73.4734 48.8152L79.4311 40.1734L82.413 35.858C82.8868 35.1266 83.4592 34.4262 83.8143 33.7126C84.1805 32.9998 84.3177 32.1256 83.7205 31.7472C83.1419 31.3695 82.2268 31.6298 81.411 31.8592C80.5772 32.0947 79.7545 32.3797 78.958 32.721C77.3574 33.4029 75.845 34.2833 74.4568 35.3436L74.3562 35.2193" fill="#142601"/>
<path d="M53.0578 53.4159C54.0226 53.1859 54.8446 53.2971 55.5922 53.67C55.9522 53.8877 56.2646 54.2592 56.6501 54.4254C57.0231 54.6067 57.4535 54.6239 57.8824 54.6067C58.7672 54.5319 59.5768 54.6555 60.3733 54.8478C61.1512 55.1211 61.905 55.4809 62.6084 56.156L62.5711 56.3112C61.6546 56.6333 60.7899 56.6209 59.9623 56.4904C59.1465 56.2796 58.3555 55.9761 57.6466 55.4432C57.2783 55.1952 56.9114 54.9782 56.4942 54.9164C56.0832 54.8416 55.6094 54.959 55.1805 54.9288C54.3467 54.786 53.5992 54.3574 53.002 53.5636L53.0578 53.4159Z" fill="#142601"/>
<path d="M64.9551 56.4347C65.3537 55.4238 65.9192 54.711 66.6605 54.1479C67.0529 53.8876 67.5625 53.7256 67.9115 53.4097C68.2673 53.1006 68.4963 52.6721 68.6783 52.2257C69.0149 51.3021 69.4624 50.5082 69.9424 49.726C70.4886 48.9899 71.0865 48.288 71.952 47.6562L72.0954 47.7181C72.1513 48.7976 71.8403 49.7576 71.3865 50.6257C70.8638 51.4497 70.2162 52.2065 69.3618 52.7655C68.9521 53.056 68.5715 53.354 68.2977 53.751C68.0184 54.1417 67.8749 54.6623 67.6012 55.0777C66.997 55.8524 66.144 56.3983 65.0537 56.559L64.9551 56.4347Z" fill="#142601"/>
<path d="M59.6627 49.1621C60.324 49.5906 60.622 50.0308 60.6964 50.583C60.6964 50.8673 60.5661 51.2209 60.6344 51.4942C60.6964 51.7731 60.9088 51.9825 61.164 52.1638C61.6991 52.4989 62.0481 52.8952 62.3653 53.3285C62.6143 53.8065 62.8005 54.3208 62.8067 55.0845L62.6887 55.1888C61.9226 55.1209 61.3867 54.7541 60.9771 54.3078C60.6344 53.8126 60.3861 53.2351 60.3909 52.5669C60.373 52.2428 60.3413 51.9461 60.1675 51.7051C59.9985 51.462 59.651 51.2889 59.4517 51.0417C59.1282 50.526 59.0965 49.8749 59.5075 49.1992L59.6627 49.1621Z" fill="#142601"/>
<path d="M64.6943 55.6667C64.4391 54.8475 64.444 54.2459 64.675 53.6512C64.8315 53.3607 65.1295 53.075 65.2046 52.7523C65.2922 52.4302 65.1977 52.0889 65.0612 51.773C64.7309 51.1398 64.5702 50.5513 64.4329 49.9497C64.3709 49.3289 64.3647 48.704 64.5633 47.8909L64.7115 47.8291C65.4591 48.2453 65.8708 48.8956 66.0949 49.5906C66.2432 50.2972 66.237 51.0526 65.9329 51.7606C65.7956 52.1129 65.6839 52.448 65.7205 52.7893C65.7398 53.1368 65.9515 53.5145 65.9818 53.8874C65.9756 54.6126 65.6094 55.3062 64.8426 55.7285L64.6943 55.6667Z" fill="#142601"/>
<mask id="mask1_71_256" style="mask-type:luminance" maskUnits="userSpaceOnUse" x="70" y="61" width="35" height="44">
<path d="M70.9707 61.5308H104.256V104.427H70.9707V61.5308Z" fill="white"/>
</mask>
<g mask="url(#mask1_71_256)">
<path d="M99.4165 73.2369C98.8193 70.9989 97.9724 68.71 96.2483 67.2294C95.3939 66.5166 94.3739 65.9947 93.2899 65.7784C92.2251 65.5421 91.1113 65.6973 90.4383 66.4102C89.7466 67.1182 89.4425 68.2451 89.057 69.35C88.6708 70.4529 88.3218 71.5496 88.048 72.6608C87.5122 74.8665 87.3688 77.1794 88.2101 79.1757L87.1826 78.8599C90.4638 76.6458 93.9926 74.8178 97.6428 73.3049C98.5703 72.9574 99.4468 72.5543 100.505 72.3064C101.029 72.1958 101.596 72.1272 102.193 72.2508C102.785 72.3558 103.376 72.7287 103.712 73.2369C104.877 75.2765 104.254 77.5887 103.102 79.2314C101.932 80.9248 100.138 82.071 98.2641 82.7234C96.3787 83.3978 94.4422 83.7198 92.4996 84.0927C91.5162 84.2294 90.5003 84.3042 89.4852 84.1168C88.4894 83.9561 87.4246 83.3916 86.9336 82.3993C86.4281 81.4076 86.5095 80.3233 86.5654 79.3619C86.6226 78.3826 86.7026 77.4095 86.7964 76.4302C86.9957 74.4826 87.257 72.5303 87.5998 70.6019C87.9425 68.6928 88.3218 66.7645 87.6812 65.1582C87.3688 64.3582 86.8329 63.6584 86.1433 63.3103C85.464 62.9518 84.642 62.982 83.8827 63.2739C82.3069 63.8693 81.3856 65.4803 81.1063 67.2658C80.5884 70.9117 81.2677 74.8109 82.6428 78.2775C83.3345 79.995 84.3117 81.7489 85.364 83.1196C85.6137 83.3737 85.713 83.4039 85.9675 83.3916C86.2116 83.3675 86.5226 83.2055 86.7088 82.9837C87.1074 82.5359 87.2191 81.6741 87.1391 80.7882L87.8805 81.5202C86.6102 81.3959 85.4323 81.4028 84.8916 82.1026C84.6048 82.4631 84.5241 82.8085 84.693 83.1196C84.7854 83.3181 84.9972 83.5722 85.1965 83.9499C85.4144 84.3345 85.4944 84.9168 85.3889 85.3515C85.1709 86.2374 84.6737 86.7641 84.331 87.286L83.1979 88.8737L80.9187 92.0347C79.3871 94.1299 77.8375 96.2252 76.2376 98.2771C74.6177 100.319 72.9426 102.314 71.2247 104.267L71.1006 104.167C74.2453 100.026 77.152 95.7362 80.016 91.4078L82.1649 88.1657L83.2469 86.5416C83.6152 85.9895 83.9751 85.4882 84.0379 85.085C84.0696 84.8804 84.0503 84.7863 83.9517 84.6009C83.851 84.4086 83.6331 84.1614 83.4221 83.7837C83.1979 83.4039 83.0924 82.8408 83.1786 82.3883C83.26 81.9172 83.4655 81.5141 83.7269 81.1789C84.2496 80.484 85.1151 80.087 85.8626 79.9758C86.6274 79.8453 87.3446 79.8824 87.9984 79.9332L88.6887 79.982L88.7328 80.6646C88.8018 81.6802 88.819 82.9452 87.9301 84.0371C87.4867 84.5453 86.884 84.9058 86.1557 84.9978C85.4275 85.1407 84.5365 84.7073 84.1572 84.2102C82.8117 82.4995 81.8904 80.7951 81.0939 78.9093C79.5491 75.1584 78.9706 71.0669 79.5857 66.9877C79.7802 65.9645 80.1339 64.9165 80.7574 63.9991C81.3856 63.063 82.2952 62.3186 83.3717 61.9217C84.4248 61.5186 85.7447 61.5062 86.7964 62.114C87.8487 62.6963 88.5211 63.6948 88.8811 64.7119C89.6356 66.8449 89.0632 68.9462 88.6522 70.8066C88.228 72.6972 87.8743 74.6063 87.606 76.5284C87.4757 77.4905 87.3626 78.4506 87.2633 79.4188C87.1695 80.3789 87.0771 81.3389 87.4626 82.1328C87.8487 82.9328 88.6818 83.4101 89.5921 83.5784C90.5072 83.7645 91.4775 83.7088 92.4306 83.59C94.3353 83.2865 96.2787 82.8896 98.0717 82.207C99.8585 81.5264 101.534 80.4599 102.51 78.8475C103.009 78.0598 103.345 77.1794 103.431 76.2805C103.513 75.4125 103.358 74.427 102.909 73.8062C102.467 73.2046 101.632 73.1559 100.767 73.3921C99.9268 73.627 99.0248 74.0795 98.14 74.4586C94.5919 76.0271 91.2038 77.9238 87.9487 80.0136L87.2315 80.4723L86.9212 79.6963C85.9612 77.279 86.2247 74.6681 86.8267 72.362C87.1329 71.1905 87.5184 70.0622 87.9301 68.9531C88.3653 67.8866 88.7073 66.6471 89.7162 65.6657C90.7555 64.6693 92.3065 64.5944 93.4892 64.9234C94.7036 65.2324 95.8304 65.8402 96.72 66.7151C98.4889 68.4944 99.1985 70.9048 99.5716 73.2046L99.4165 73.2369Z" fill="#142601"/>
</g>
<path d="M84.2681 73.1255C84.5722 73.9558 84.5977 74.5889 84.3984 75.2269C84.2612 75.5428 83.9812 75.8649 83.9316 76.2062C83.8633 76.5537 83.9743 76.9012 84.1433 77.2232C84.5233 77.8612 84.7288 78.4696 84.915 79.0836C84.9708 79.4057 85.0281 79.7277 85.0329 80.0821C85.046 80.2421 85.0646 80.466 85.0281 80.6026C85.0157 80.6582 84.9536 80.6267 84.8274 80.6946C84.6922 80.7626 84.7412 80.8567 84.7653 80.8437C84.7605 80.8375 84.8957 80.8993 84.9026 80.8375L84.8226 80.7008C84.8336 80.6582 84.9646 80.639 85.0219 80.6946C85.0777 80.7393 85.1012 80.788 85.1143 80.8313C85.146 80.9055 85.1591 81.1039 84.9281 81.198C84.6171 81.29 84.4178 81.0854 84.324 81.0057C84.1309 80.8244 84.0192 80.7201 83.8757 80.558C83.6143 80.2613 83.4344 79.92 83.2909 79.5664C83.0792 78.8405 83.0233 78.0535 83.2778 77.2981C83.3833 76.919 83.4647 76.5599 83.415 76.2C83.3661 75.8477 83.1344 75.4618 83.0792 75.0779C83.0406 74.3225 83.3709 73.5712 84.1178 73.0747L84.2681 73.1255Z" fill="#142601"/>
<path d="M88.1912 81.8544C88.9318 81.3709 89.6159 81.2768 90.2821 81.4197C90.6069 81.5261 90.9483 81.7864 91.291 81.8166C91.6338 81.8661 91.9696 81.7356 92.2744 81.5502C92.8785 81.1402 93.4268 80.893 93.9688 80.6327C94.5405 80.4404 95.1019 80.2914 95.9356 80.1245L96.0536 80.2296C95.9736 81.11 95.3695 81.774 94.6909 82.1641C93.975 82.4992 93.1716 82.6228 92.3986 82.412C92.0193 82.3262 91.6655 82.2575 91.3103 82.331C90.9607 82.399 90.6007 82.6544 90.2387 82.7403C89.5104 82.8405 88.8125 82.6166 88.1719 82.0089L88.1912 81.8544Z" fill="#142601"/>
<path d="M90.7182 73.8508C90.6437 74.5698 90.4748 74.9352 90.0948 75.1776C89.8831 75.2696 89.5417 75.2888 89.3666 75.4509C89.1866 75.6109 89.1486 75.865 89.161 76.1253C89.2293 76.6651 89.1673 77.0682 89.0686 77.4713C88.8873 77.8552 88.6445 78.2157 88.1218 78.6744L87.9659 78.6682C87.4618 78.171 87.3556 77.5757 87.4239 77.0318C87.5735 76.5112 87.8666 76.014 88.3894 75.7112C88.6383 75.5553 88.85 75.4001 88.9445 75.1584C89.0431 74.9283 89.0004 74.5698 89.099 74.3034C89.3541 73.8254 89.9086 73.5459 90.6244 73.721L90.7182 73.8508Z" fill="#142601"/>
</svg>
