<svg width="210" height="73" viewBox="0 0 210 73" fill="none" xmlns="http://www.w3.org/2000/svg">
<mask id="mask0_71_347" style="mask-type:luminance" maskUnits="userSpaceOnUse" x="0" y="0" width="210" height="73">
<path d="M0.400391 0.352783H209.54V72.4175H0.400391V0.352783Z" fill="white"/>
</mask>
<g mask="url(#mask0_71_347)">
<path d="M198.114 24.0312C188.235 32.4434 176.07 39.9781 163.181 38.4906C159.652 38.0847 156.2 37.0043 152.656 36.9691C149.107 36.9338 145.226 38.2318 143.515 41.3465C145.157 43.4028 145.135 46.441 144.006 48.812C142.876 51.1903 140.821 52.9937 138.638 54.4667C134.19 57.4623 128.991 59.329 123.659 59.8406C121.92 62.4231 120.187 65.0116 118.446 67.5941C117.065 69.6431 115.394 71.8877 112.946 72.217C111.325 72.4345 109.732 71.7479 108.238 71.0734C105.712 69.9299 103.13 68.7583 101.13 66.8431C99.1308 64.9278 97.777 62.0938 98.3591 59.3849C94.1008 63.8681 87.898 66.4299 81.7244 66.2743C79.7666 66.2257 77.5499 65.7481 76.5534 64.0576C76.0478 63.2021 75.9567 62.1776 75.8655 61.1957C75.4232 56.1231 75.1497 50.4818 78.3423 46.5102C74.6515 44.7845 70.2522 46.097 66.6598 48.0184C63.0687 49.941 59.6999 52.4809 55.715 53.3583C49.7164 54.6769 43.64 51.962 38.091 49.3236C46.4327 48.6297 54.7683 47.9345 63.11 47.254C53.7438 44.2863 43.1077 41.417 34.5121 46.1809C29.6716 48.8606 23.5041 49.0016 18.5506 46.5321C24.8166 40.35 36.2669 46.3279 43.9001 41.9432C36.1332 39.3887 28.1002 36.9059 19.9469 37.5646C15.3167 37.9365 10.5529 39.3049 6.13289 37.8806C1.71292 36.4562 -1.51486 30.3944 1.78219 27.1253C6.86205 29.7491 11.9419 32.3729 17.0218 35.004C20.7891 36.9266 25.2796 37.4042 29.3629 36.2885C28.9838 33.8811 26.3746 32.6609 24.5565 31.0398C21.1331 27.9809 20.3407 23.0141 19.7513 18.4531C23.7848 21.8559 26.7173 26.5432 28.0152 31.6644C29.1381 36.0917 34.2386 37.9996 38.6379 39.221C46.3343 41.3672 54.0318 43.5073 61.7282 45.6547C61.8048 43.7042 60.1143 42.0696 58.2695 41.4377C56.4235 40.8069 54.4244 40.9042 52.4812 40.779C45.373 40.3293 38.5334 36.6385 34.2605 30.9413C39.6976 30.2194 45.3523 30.2681 50.5233 32.1141C55.6871 33.9589 60.3173 37.8101 62.1839 42.9677C63.2084 45.809 67.1447 46.0618 70.0772 45.346C73.0096 44.6302 76.3711 43.5425 78.8332 45.2962C80.3207 43.4441 81.8009 41.592 83.2884 39.7399C79.1213 39.9016 75.1011 36.5899 74.4619 32.4713C74.1678 30.5767 74.5117 28.6335 74.3501 26.7182C74.1532 24.3399 73.1919 21.9398 73.8239 19.6453C74.9249 15.6325 79.9282 14.4257 84.0528 13.9214C86.2355 13.654 88.8872 13.5835 90.1292 15.3943C92.0239 13.6406 95.2723 14.3904 97.0332 16.2717C98.7942 18.1517 99.4468 20.7901 100.036 23.3009C98.8501 18.6075 100.499 13.5069 103.543 9.74566C106.589 5.98559 110.89 3.4177 115.36 1.56562C116.938 0.905725 118.671 0.323606 120.341 0.716141C123.028 1.35538 124.466 4.20399 125.546 6.74392C127.273 10.7774 129.034 14.9738 128.9 19.3585C128.767 23.7432 126.185 28.388 121.92 29.4198C129.518 27.4899 139.333 30.3592 141.277 37.9583C146.524 36.6531 150.488 32.2964 153.211 27.6163C155.927 22.9436 157.729 17.7653 160.585 13.1703C163.651 8.22413 167.924 4.02777 172.919 1.0467C171.025 8.15364 167.376 14.7842 162.388 20.1861C157.905 25.0411 152.186 29.195 149.984 35.4257C165.159 33.4533 176.483 20.9651 186.376 9.29722C186.173 16.454 180.65 23.1186 173.655 24.634C187.091 23.6521 196.255 9.34583 209.522 7.00277C207.523 13.6746 200.422 17.3582 193.729 19.2953C187.036 21.2312 179.767 22.3335 174.414 26.7948C168.863 31.4116 161.946 34.3587 154.776 35.1583C161.42 39.249 170.022 35.6286 176.617 31.4615C183.205 27.287 190.501 22.3396 198.114 24.0312ZM106.266 35.495C106.141 35.4464 106.028 35.7052 106.168 35.7052C106.238 35.5654 106.351 35.4536 106.491 35.3832C106.483 35.2422 106.224 35.3552 106.28 35.4816M104.378 21.3017C104.75 20.5434 105.291 19.7158 105.003 18.9161C104.779 18.2915 105.473 17.555 106.105 17.7446C106.736 17.9342 106.926 18.9307 106.392 19.3306C105.122 20.2845 104.421 21.8486 104.168 23.4212C103.923 24.9925 104.077 26.5918 104.239 28.1778C104.463 30.3944 104.681 32.6184 104.905 34.8363C105.129 34.4498 105.354 34.0573 105.572 33.6708C105.276 31.3703 105.488 28.9981 106.175 26.7814C106.105 28.8656 106.035 30.9413 105.964 33.0255C107.417 30.2267 108.16 27.0694 108.112 23.9121C107.297 23.7712 107.206 22.3542 107.999 22.116C108.792 21.8766 109.508 23.0979 108.911 23.6667C108.385 24.171 108.378 24.9925 108.357 25.7217C108.294 28.6056 107.53 31.4748 106.147 34.0075C107.558 32.4993 108.967 30.9911 110.384 29.483C112.329 27.4061 112.167 23.7299 110.04 21.8279C110.083 21.0769 110.665 20.3125 111.423 20.3052C112.18 20.2979 112.784 21.309 112.286 21.8766C111.241 23.042 111.83 24.8661 112.476 26.2977C114.062 23.6873 115.443 20.9444 116.6 18.1165C117.121 16.8465 117.407 15.0224 116.173 14.4184C116.096 13.942 116.425 13.4365 116.888 13.3101C117.351 13.1837 117.892 13.451 118.075 13.8995C118.242 14.3212 118.11 14.7842 117.976 15.2193C117.604 16.4187 117.225 17.6182 116.769 18.7825C116.173 20.3125 115.429 21.7793 114.692 23.245C113.058 26.4934 111.423 29.7345 109.789 32.983C112.602 31.0677 114.973 28.5144 116.685 25.5746C115.808 24.9646 116.412 23.2595 117.478 23.3361C118.166 23.4832 117.969 24.5222 117.591 25.1189C114.763 29.5595 110.869 33.3208 106.329 35.9932C106.701 36.5899 107.445 36.9411 108.147 36.8427C107.705 36.9266 108.104 37.5998 108.532 37.7408C111.199 38.617 114.285 38.0981 116.517 36.4003C116.86 36.1342 117.197 35.8389 117.612 35.7125C118.025 35.58 118.551 35.6639 118.776 36.0358C119.008 36.4076 118.699 37.0177 118.271 36.9338C117.078 36.709 115.934 37.4175 114.812 37.8878C112.314 38.933 109.346 38.7993 106.954 37.5366C108.659 38.905 110.946 39.2417 113.114 39.4944C116.825 39.9295 120.909 40.2029 123.967 38.0555C124.367 37.776 124.768 37.4455 125.252 37.3896C125.736 37.3337 126.304 37.7128 126.227 38.1965C123.084 39.5783 119.66 40.322 116.23 40.3719C112.244 40.4278 107.999 39.4033 105.312 36.4635C105.312 38.3436 107.403 39.4179 109.171 40.0559C108.582 40 107.993 39.9368 107.403 39.8809C109.655 43.4088 114.222 44.5464 117.569 47.0644C120.769 49.4646 122.859 53.2878 123.168 57.2727C123.246 58.2559 124.522 58.7116 125.47 58.4455C126.416 58.1781 127.175 57.4696 128.058 57.0345C130.353 55.8983 133.313 56.6627 135.481 55.3016C136.905 54.4108 137.692 52.7835 138.975 51.7092C139.971 50.8743 141.256 50.3833 142.147 49.4366C143.038 48.4887 143.333 46.7278 142.245 46.0059C138.744 43.6616 136.386 39.684 136.014 35.4877C135.748 32.5139 132.829 30.0299 129.847 30.2474C129.034 30.3106 128.234 30.5415 127.42 30.5208C125.89 30.4856 124.22 29.6094 122.943 30.4503C118.685 33.2576 113.963 35.3479 109.023 36.6179C108.919 36.6458 108.813 36.6738 108.708 36.6604C108.112 36.6106 108.125 35.7052 108.456 35.2082C109.466 33.6781 111.444 33.2078 113.184 32.6403C117.268 31.2925 120.845 28.7951 124.367 26.3257C125.462 25.554 126.599 24.747 127.23 23.5682C127.911 22.2983 127.911 20.7901 127.855 19.3512C127.805 18.1517 127.721 16.9304 127.301 15.8087C126.942 14.8535 126.347 13.9906 126.003 13.0293C125.54 11.746 125.553 10.3496 125.336 9.00191C125.07 7.32604 124.452 5.70486 123.526 4.28055C122.684 2.97534 121.457 1.76857 119.912 1.59357C118.768 1.45989 117.647 1.90954 116.58 2.35798C115.128 2.96197 113.599 3.62066 112.637 4.86996C111.57 6.25173 111.318 8.19618 110.034 9.38107C108.848 10.476 106.989 10.7009 105.964 11.9562C105.235 12.847 105.066 14.1097 104.302 14.9738C103.565 15.8148 102.366 16.1587 101.678 17.0434C101.061 17.8358 100.976 18.9161 100.97 19.92C100.927 24.8029 102.078 29.6859 104.281 34.0427C104.638 29.7285 102.478 25.1469 104.378 21.3017ZM80.3353 16.4819C79.8857 16.2996 79.4652 16.0469 78.9876 15.963C77.9497 15.7734 76.9386 16.426 76.2301 17.2111C74.3428 19.3026 73.9077 22.579 75.185 25.091C76.3638 27.4121 74.9042 30.2121 75.2482 32.7873C75.4791 34.5057 76.5667 36.0844 78.0895 36.9059C79.577 37.7128 81.3877 37.804 82.8327 38.6875C83.4221 39.046 83.9338 39.5297 84.5305 39.887C86.8322 41.2481 89.7853 40.4205 92.1709 39.221C94.5565 38.0215 96.8923 36.4356 99.5659 36.3238C98.6751 35.3904 97.1876 35.3273 95.9383 35.6639C94.6902 36.0005 93.5527 36.6604 92.3046 36.997C90.6627 37.4321 88.9225 37.2632 87.232 37.0955C86.9647 37.0663 86.6985 37.0384 86.4664 36.912C85.9122 36.6033 85.8284 35.7125 86.312 35.3054C86.7969 34.8995 87.6671 35.145 87.87 35.7477C88.1654 36.6179 89.2457 36.9266 90.1572 36.8779C92.7603 36.7516 95.09 34.8424 97.6931 35.0113C97.1244 33.9516 96.5277 32.8578 95.5737 32.1201C94.6197 31.3837 93.2233 31.0823 92.2134 31.7422C91.5742 32.1554 91.02 32.949 90.269 32.8007C89.6516 32.6743 89.3575 31.826 89.7088 31.3071C90.0588 30.7809 90.8657 30.6825 91.3785 31.047C91.9813 31.4615 92.7676 30.9559 93.4834 30.8222C94.4374 30.6472 95.3987 31.1941 96.0647 31.9026C96.7318 32.6111 97.2009 33.4812 97.8329 34.225C98.8501 35.4318 100.295 36.274 101.846 36.5753C99.5659 35.3832 98.1063 33.0535 97.0186 30.7177C95.931 28.3807 95.09 25.8967 93.5466 23.8344C93.1395 23.2948 92.6765 22.7746 92.0591 22.5012C91.4417 22.2278 90.6482 22.2557 90.1645 22.726C89.6808 23.1964 88.7195 22.9156 88.5652 22.263C88.4108 21.6104 89.1327 20.9226 89.778 21.1194C91.3154 21.5898 92.8308 22.3116 93.9112 23.505C94.8579 24.5575 95.3987 25.8967 95.9601 27.1958C96.6966 28.9069 97.4963 30.5913 98.3518 32.2465C99.0117 33.5238 99.7688 34.8496 101.033 35.5229C98.7869 32.9198 97.4817 29.517 97.4258 26.0729C97.4124 25.2793 97.461 24.459 97.2009 23.708C96.9421 22.9569 96.2749 22.2764 95.4825 22.2983C94.8858 22.3116 94.5565 21.4561 94.9077 20.9651C95.2577 20.4814 95.9808 20.3963 96.535 20.6212C96.8996 20.7682 97.2581 21.162 97.0891 21.5193C96.795 22.1439 97.2435 22.8378 97.5035 23.4771C97.8608 24.3679 97.8329 25.3644 97.8815 26.3257C98.0711 29.7345 99.4042 33.0681 101.615 35.6712C102.085 36.2253 102.786 36.8002 103.467 36.5401C102.113 36.0844 101.509 34.5203 101.264 33.1167C100.92 31.0896 100.97 28.9908 100.443 26.999C100.127 25.7922 99.6011 24.6559 99.0883 23.5184C98.1695 21.5047 97.2435 19.491 96.3247 17.4785C96.1279 17.0495 95.9249 16.6144 95.5943 16.2778C94.7181 15.387 93.2513 15.4927 92.0445 15.85C90.8377 16.2085 89.6237 16.7554 88.389 16.5306C87.6452 16.3969 86.9719 15.991 86.2209 15.9278C85.1758 15.8427 84.2072 16.4467 83.19 16.6995C82.2506 16.9231 81.2334 16.8465 80.3353 16.4819ZM92.6898 47.8507C92.2693 48.1035 91.7784 48.2858 91.2935 48.1946C90.8098 48.1035 90.3674 47.6757 90.41 47.1835C90.4452 46.7071 90.9568 46.3425 91.4344 46.3984C91.9108 46.4543 92.3046 46.8687 92.403 47.3378C93.7921 46.6233 94.5565 45.1212 95.5105 43.8792C96.8716 42.1109 98.7103 40.779 100.52 39.4799C99.1101 40.0984 97.6931 40.7158 96.2822 41.3392C95.2298 41.8023 94.164 42.2653 93.0265 42.4342C90.7818 42.7635 88.3476 41.9286 86.2841 42.8693C83.331 44.2158 82.8886 48.2712 80.6367 50.6154C79.9343 51.3519 79.0581 51.9061 78.3568 52.6425C77.6544 53.379 77.1209 54.4035 77.353 55.3927C77.9777 58.0663 75.789 61.1106 77.2121 63.4609C78.2937 65.251 80.8117 65.4333 82.8813 65.1599C86.4737 64.6957 89.9397 63.5241 93.2659 62.0865C94.2831 61.6441 95.3355 61.1458 95.9735 60.2344C96.3454 59.7009 96.5423 59.0689 96.8291 58.4795C97.7843 56.529 99.6497 55.197 100.884 53.4069C102.983 50.3554 102.983 46.3705 102.898 42.6663C102.639 43.1002 102.379 43.5292 102.119 43.9642C101.769 42.1328 104.147 40.4351 103.452 38.7021C101.383 40.9746 99.8466 43.7394 99.019 46.6998C99.4954 46.6233 99.9937 46.9951 100.057 47.4642C100.127 47.9418 99.7482 48.4328 99.2718 48.496C98.8707 48.5385 98.5134 48.1873 98.415 47.8021C98.3166 47.4156 98.4077 47.0012 98.5134 46.616C99.0956 44.4904 100.071 42.4694 101.362 40.6866C100.85 41.242 100.078 41.5568 99.3204 41.5154C100.626 40.7924 101.769 39.7885 102.645 38.5818C100.107 40.322 97.5169 42.0976 95.6442 44.5464C94.7315 45.7252 93.9671 47.0863 92.6898 47.8507ZM101.594 57.3153C103.446 59.5113 103.852 62.8229 102.589 65.4054C102.394 65.8052 102.162 66.2609 102.337 66.6681C102.422 66.8503 102.576 66.9974 102.738 67.1165C104.659 68.5687 107.621 68.1908 109.332 69.8812C110.904 71.4392 113.738 71.4599 115.338 69.9299C116.418 68.892 116.888 67.3766 117.794 66.1832C118.642 65.0615 119.856 64.2618 120.747 63.1668C123.147 60.2198 122.663 55.7439 120.769 52.4457C119.19 49.7028 116.734 47.4715 113.85 46.1602C113.177 45.8516 112.483 45.5988 111.803 45.2962C109.192 44.1319 106.89 42.3005 105.172 40.0134C104.877 43.0516 106.175 46.1943 108.539 48.1314C108.708 48.2651 108.954 48.3976 109.114 48.2505C109.543 47.858 110.35 48.0609 110.539 48.6078C110.728 49.1559 110.217 49.8146 109.634 49.766C109.248 49.7307 108.932 49.4573 108.659 49.1839C107.249 47.7875 106.091 46.1311 105.256 44.3288C105.306 46.2234 103.46 47.7036 103.264 49.591C103.088 51.3167 102.407 52.9865 101.327 54.3476C101.046 54.6988 100.73 55.0561 100.674 55.4984C100.583 56.1996 101.145 56.7818 101.594 57.3153ZM181.662 29.1804C178.272 31.363 174.884 33.5384 171.488 35.7198C176.82 34.5908 180.84 29.7285 186.229 28.8583C186.334 29.2654 185.793 29.5036 185.38 29.5948C182.721 30.1635 180.483 31.8746 178.181 33.3269C175.326 35.1304 172.253 36.5826 169.047 37.6496C169.762 37.6849 170.47 37.5014 171.165 37.3191C177.824 35.5727 184.692 33.7267 190.074 29.4332C192.143 27.784 193.954 25.7995 196.213 24.4104C192.473 24.9014 188.657 25.413 185.26 27.0621C184.005 27.6722 182.833 28.4306 181.662 29.1804ZM45.9211 32.0436C43.2402 31.6924 40.518 31.9804 37.831 32.2745C40.315 35.5375 43.9353 37.9158 47.9129 38.905C49.5827 39.3194 51.3023 39.5017 53.0147 39.6767C54.9226 39.8736 56.8306 40.0693 58.7398 40.2661C55.0417 37.1016 49.8148 36.6811 45.1846 35.1656C44.8261 35.0465 44.391 34.8071 44.4469 34.4292C48.5522 34.9335 52.5857 35.9932 56.4101 37.5719C53.7232 34.5762 49.9266 32.5698 45.9211 32.0436ZM13.2544 37.2839C13.6676 37.2498 14.1805 37.1368 14.2643 36.737C9.95615 36.9059 5.66257 34.366 3.73271 30.5135C3.99278 30.1635 4.5117 30.5767 4.74382 30.9486C6.04174 32.9976 8.10407 34.5555 10.4338 35.2361C11.2188 35.467 12.0258 35.6007 12.8327 35.7344C14.0954 35.9446 15.3593 36.1476 16.6219 36.3578C16.3133 34.9967 15.036 34.1059 13.7867 33.4812C9.84434 31.4894 5.20684 30.7384 1.84539 27.8764C1.39695 30.3106 1.88792 32.9137 3.2065 35.004C3.88098 36.0771 4.80702 37.0457 6.0065 37.4528C6.99573 37.7894 8.07612 37.7128 9.11396 37.6278C10.503 37.5014 11.8787 37.3896 13.2544 37.2839ZM157.779 23.6448C163.722 18.5309 168.183 11.7035 170.485 4.21006C163.833 9.21336 159.771 16.8465 156.102 24.312C156.572 24.4311 156.944 23.9255 157.162 23.4904C159.659 18.6002 162.718 13.9979 166.254 9.79548C166.738 9.21944 167.335 8.60208 168.092 8.60937C163.932 13.0719 160.444 18.159 157.779 23.6448ZM208.54 8.24479C208.456 8.03454 208.147 8.04791 207.93 8.11111C202.457 9.58524 197.448 12.7559 193.771 17.0714C196.831 15.0929 199.945 13.2056 203.116 11.4021C203.355 11.5212 203.123 11.8797 202.899 12.0194C199.518 14.1036 196.135 16.1939 192.753 18.2781C198.233 17.9974 203.523 15.071 206.667 10.5745C207.235 9.75295 207.754 8.86944 208.54 8.24479ZM61.2372 49.5691C59.8761 49.8571 58.5077 50.1306 57.1393 50.3979C54.2141 50.9655 51.0143 51.4503 48.3905 50.0394C53.547 50.517 58.8091 49.8146 63.6641 48.005C63.5596 47.6818 63.0893 47.7243 62.76 47.8361C56.1148 50.0042 48.8815 48.8472 41.9289 49.563C41.6555 49.591 41.3042 49.7174 41.3395 49.9908C42.8902 49.5411 44.4761 50.404 45.9624 51.0286C50.8806 53.0776 56.7954 52.5089 61.2372 49.5691ZM106.905 10.1601C109.283 9.33975 111.185 7.23489 111.745 4.77881C110.946 5.36823 110.062 5.83125 109.122 6.15451C105.221 7.50104 102.267 11.2757 101.909 15.387C101.903 15.4781 101.909 15.5911 101.994 15.6325C102.05 15.6604 102.119 15.6325 102.176 15.6118C102.926 15.2752 103.586 14.7271 104.056 14.0465C104.527 13.366 104.8 12.5809 105.185 11.8578C105.579 11.1286 106.126 10.4262 106.905 10.1601ZM84.4466 41.417C83.2605 41.5009 82.1801 42.1814 81.4011 43.0795C80.6294 43.9776 80.1312 45.0859 79.7459 46.2089C79.4154 47.1628 78.9171 48.0476 78.2645 48.8193C77.6824 49.5132 76.9812 50.1233 76.5534 50.9241C76.1256 51.7238 76.0478 52.8175 76.6858 53.4568C77.0018 52.4043 77.7103 51.471 78.6437 50.8889C80.3766 49.8012 81.2042 47.7595 82.1096 45.9281C83.015 44.0967 84.3409 42.1741 86.3546 41.8168C85.7798 41.5154 85.1053 41.3672 84.4466 41.417ZM176.693 22.5851C177.705 21.9337 178.714 21.2811 179.724 20.6212C180.251 20.2773 180.777 19.9406 181.275 19.5615C183.843 17.583 185.527 14.4962 185.793 11.2611C182.201 14.3139 178.967 17.7932 176.175 21.5898C176.111 21.6736 176.048 21.7927 176.111 21.8766C176.189 21.9823 176.35 21.8984 176.448 21.8207C178.707 19.9406 180.714 17.7446 182.377 15.3165C182.468 15.184 182.699 15.2825 182.735 15.4429C182.77 15.5972 182.679 15.7516 182.595 15.8925C180.862 18.622 178.553 20.9785 175.859 22.7686C176.126 22.9083 176.448 22.7467 176.693 22.5851ZM20.9787 45.8649C20.8596 45.9148 20.7332 45.9707 20.6773 46.0825C20.6202 46.1943 20.7187 46.3705 20.8377 46.3425C21.9254 46.0399 22.9645 46.8894 24.0376 47.254C24.6622 47.4642 25.3282 47.5068 25.9881 47.5214C27.3844 47.5554 28.7808 47.4788 30.1699 47.2965C30.724 47.2188 31.2782 47.1276 31.7971 46.9247C32.2115 46.763 32.5968 46.5321 32.9759 46.3073C33.7695 45.837 34.5692 45.3594 35.3615 44.8903C34.8074 44.7359 34.218 44.9182 33.6711 45.0932C32.3513 45.521 31.0048 45.9354 29.623 45.9767C27.8827 46.0266 26.1777 45.4931 24.5152 44.9595C23.8687 44.7566 23.182 45.0021 22.5501 45.2549C22.0239 45.4578 21.4976 45.662 20.9787 45.8649ZM101.678 65.945C102.085 64.963 102.498 63.9531 102.498 62.8861C102.498 62.3526 102.394 61.8264 102.26 61.3148C101.804 59.5392 100.997 57.8561 99.9098 56.3819C99.4188 56.7405 98.991 57.1816 98.6471 57.6726C98.5487 57.8208 98.4502 58.0104 98.5341 58.1648C99.2086 59.4347 99.6436 60.8299 99.8259 62.2542C100.008 63.6444 100.667 64.9703 101.678 65.945ZM143.129 45.2269C143.29 44.5816 142.946 43.9351 142.603 43.3602C140.996 40.638 139.389 37.9158 137.783 35.1936C137.558 34.8144 137.249 34.3866 136.814 34.4012C137.088 35.7684 137.418 37.1234 137.803 38.4627C137.902 38.7993 138 39.1371 138.119 39.4738C138.997 41.9226 140.821 44.0274 143.129 45.2269ZM101.145 37.375C100.976 37.025 100.485 37.0323 100.099 37.0955C99.5452 37.1866 98.9838 37.2705 98.443 37.4321C97.7272 37.6424 97.0466 37.9717 96.3806 38.295C94.6404 39.1432 92.894 39.9927 91.1537 40.841C90.9921 40.9187 90.8377 41.1788 91.0067 41.2274C91.4697 41.3611 91.9607 41.417 92.4443 41.3964C93.1042 41.3745 93.7495 41.2128 94.3742 40.9892C94.8226 40.8276 95.2577 40.6307 95.6928 40.4351C97.3067 39.712 98.9206 38.9889 100.534 38.2597C100.681 38.1965 100.843 38.1187 100.906 37.9717C100.976 37.8246 100.871 37.6071 100.709 37.6278C100.856 37.5512 100.997 37.4601 101.145 37.375ZM21.6313 21.4707C21.4904 21.947 21.7857 22.438 21.9048 22.9229C22.0032 23.3227 21.9813 23.7359 21.9886 24.1503C22.0312 26.9917 23.5041 29.7771 25.8338 31.4116C25.8763 31.4396 25.9249 31.4748 25.9808 31.4748C26.1983 31.4894 26.1704 31.1382 26.0586 30.9486C25.841 30.5986 25.6235 30.2547 25.406 29.9035C25.2091 29.5948 25.0195 29.2861 24.8445 28.9628C24.3888 28.1 24.0935 27.146 23.989 26.1713C23.7775 24.3958 22.9292 22.6981 21.6313 21.4707ZM26.3247 44.8477C26.9846 44.8757 27.6093 45.1418 28.2546 45.2549C29.2645 45.4299 30.289 45.2269 31.2928 45.0227C32.0645 44.8623 32.8423 44.708 33.6152 44.5464C33.6917 44.5318 33.7829 44.5038 33.8108 44.4273C33.8534 44.3009 33.6772 44.2231 33.5447 44.2097C32.2747 44.0687 31.0048 43.9424 29.7202 43.9351C28.093 43.929 26.4584 44.1186 24.8798 44.5038C25.1957 44.9182 25.8131 44.8271 26.3247 44.8477ZM88.8459 15.3238C88.4169 15.071 87.9818 14.8194 87.5541 14.5594C86.9647 14.2082 86.3266 13.8509 85.6388 13.8995C85.2669 13.9274 84.923 14.0684 84.5791 14.2154C83.5898 14.6299 82.6006 15.0503 81.6114 15.4648C81.4789 15.5207 81.3173 15.6191 81.3452 15.7661C81.3732 15.9059 81.5627 15.9411 81.7098 15.9411C82.9032 15.9205 84.0954 15.647 85.1831 15.1488C85.9341 14.8049 86.8176 15.0783 87.5966 15.3517C88.0876 15.5279 88.5858 15.7029 89.0768 15.8779C89.2664 15.7382 89.0489 15.4502 88.8459 15.3238ZM162.247 32.8578C163.391 32.8991 164.479 32.3802 165.475 31.8054C166.948 30.9632 168.345 29.9873 169.642 28.8996C169.797 28.7672 169.944 28.4937 169.755 28.4026C167.229 29.805 164.676 31.1528 162.086 32.4434C162.009 32.4786 161.925 32.5273 161.904 32.6111C161.876 32.7654 162.086 32.8505 162.247 32.8578ZM146.243 37.5306C146.356 37.4248 146.124 37.2984 145.97 37.3191C144.54 37.5233 142.974 37.804 142.056 38.9257C142.463 39.2976 142.483 40.1325 143.038 40.1823C143.298 40.2102 143.529 40.0207 143.718 39.8384C144.568 39.074 145.409 38.3023 146.243 37.5306ZM108.119 33.7547C108.434 33.4679 108.673 33.1094 108.911 32.7594C109.192 32.3377 109.473 31.9172 109.754 31.4967C109.746 31.6571 109.971 31.7483 110.118 31.6851C110.265 31.6219 110.356 31.4675 110.427 31.3205C110.756 30.6958 111.087 30.0785 111.416 29.4538C111.563 29.1743 111.704 28.7951 111.479 28.5703C111.009 29.2229 110.539 29.8755 110.048 30.5062C108.617 32.3316 106.968 33.9722 105.137 35.3965C105.291 35.5023 105.501 35.4038 105.663 35.3054C106.217 34.976 106.764 34.6394 107.318 34.3101C107.599 34.1411 107.874 33.9722 108.119 33.7547ZM104.084 41.3611C104.021 41.2274 103.937 41.0731 103.79 41.0658C103.537 41.0585 103.523 41.4595 103.684 41.6552C103.846 41.8521 104.092 42.0271 104.07 42.2799C103.93 43.6762 103.79 45.0726 103.649 46.4689C103.629 46.6439 103.705 46.904 103.874 46.8542C103.965 46.8262 104 46.7278 104.028 46.6366C104.175 46.1031 104.322 45.5708 104.471 45.0373C104.603 44.5536 104.737 44.0687 104.737 43.5705C104.73 42.7988 104.4 42.0696 104.084 41.3611ZM24.3037 25.3425C24.599 26.8519 25.2018 28.2896 26.0586 29.5668C26.1072 29.6373 26.1777 29.7212 26.2615 29.7139C26.4159 29.7005 26.4025 29.4684 26.3393 29.3214C25.7912 28.0441 25.2371 26.7668 24.6902 25.4908C24.6124 25.3219 24.339 25.1602 24.3037 25.3425ZM102.372 31.216C102.176 31.1455 102.028 31.3983 101.979 31.6012C101.797 32.2818 101.615 32.9976 101.797 33.6781C101.979 34.3587 102.681 34.9481 103.355 34.7585C103.467 34.7233 103.579 34.6674 103.636 34.5616C103.776 34.2955 103.452 34.0354 103.214 33.847C102.597 33.3694 102.295 32.52 102.478 31.7628C102.526 31.5587 102.562 31.2852 102.372 31.216ZM48.0673 42.687C48.0964 42.7149 48.1305 42.7222 48.173 42.7356C49.24 43.0443 50.3131 43.3469 51.3789 43.6556C51.4068 43.6616 51.436 43.6689 51.47 43.6689C51.6669 43.6483 51.5126 43.3396 51.3376 43.2545C50.4042 42.7781 49.415 42.2944 48.3699 42.3564C48.173 42.3637 47.9202 42.5606 48.0673 42.687ZM110.546 21.6457C111.009 22.122 111.942 21.975 112.23 21.3783C112.089 21.0076 111.669 20.7609 111.276 20.8241C110.883 20.8812 110.56 21.2458 110.546 21.6457ZM91.2023 32.0229C91.2801 31.9451 91.3567 31.8613 91.3713 31.7556C91.3919 31.6158 91.2935 31.4821 91.1817 31.3983C90.873 31.1661 90.3747 31.1941 90.1499 31.5101C89.9263 31.826 90.1292 32.3656 90.5157 32.3936C90.7746 32.4154 91.0127 32.2113 91.2023 32.0229ZM95.8969 21.0915C95.6223 20.9153 95.1945 21.1401 95.1884 21.4707C95.1812 21.7927 95.5883 22.0455 95.8751 21.9045C96.0367 21.8207 96.1983 21.6384 96.366 21.7161C96.5909 21.8207 96.7732 21.4354 96.6188 21.2385C96.4645 21.049 96.1838 21.0356 95.931 21.0356M86.9233 35.5727C86.5296 35.642 86.3266 36.1901 86.5867 36.4915C86.8383 36.7929 87.4143 36.6944 87.5541 36.3238C87.6877 35.958 87.3086 35.5095 86.9233 35.5727ZM90.207 21.7648C90.1778 21.4913 89.8206 21.3576 89.5605 21.4634C89.3089 21.5679 89.14 21.8073 88.993 22.0382C89.0343 22.3615 89.4001 22.579 89.7148 22.5012C90.0235 22.4246 90.235 22.088 90.207 21.7648ZM117.015 14.7271C117.065 14.7623 117.113 14.8049 117.162 14.8401C117.288 14.9446 117.435 15.0224 117.591 15.071C118.088 15.0783 118.566 14.6712 118.621 14.1802C118.677 13.6892 118.305 13.1837 117.814 13.0925C117.324 13.0087 116.797 13.3526 116.685 13.829C116.608 14.0891 116.65 14.3698 116.825 14.5594C116.881 14.6359 116.944 14.6785 117.015 14.7271ZM117.359 24.5076C117.548 24.6766 117.87 24.3958 117.787 24.1576C117.703 23.9182 117.387 23.8344 117.156 23.9182C116.924 24.0033 116.749 24.199 116.58 24.3958C116.538 24.4517 116.489 24.5076 116.481 24.5708C116.461 24.7252 116.643 24.8382 116.797 24.8102C116.952 24.7823 117.065 24.662 117.176 24.5502M105.866 19.2248C106.168 19.1762 106.371 18.8177 106.273 18.5309C106.168 18.2429 105.782 18.1019 105.523 18.2562C105.431 18.3061 105.354 18.3972 105.354 18.5017C105.347 18.7059 105.62 18.8457 105.6 19.0571C105.579 19.1823 105.747 19.2455 105.866 19.2248ZM105.172 39.2976C105.172 39.3547 105.179 39.4179 105.213 39.4665C105.347 39.6342 105.579 39.3753 105.614 39.1651C105.648 38.9536 105.789 38.6668 105.979 38.7653C105.901 38.5611 105.81 38.3363 105.614 38.2318C105.417 38.126 105.109 38.2391 105.122 38.4627C105.144 38.7434 105.157 39.0168 105.172 39.2976ZM65.566 46.447C65.6645 46.272 65.3485 46.1736 65.1516 46.2089C64.6959 46.3 64.2402 46.3911 63.7832 46.4823C64.1138 46.9878 64.8782 46.791 65.4251 46.5455C65.4822 46.5248 65.5381 46.4969 65.566 46.447ZM104.505 38.7434C104.463 38.617 104.287 38.5818 104.168 38.645C104.049 38.7082 103.986 38.8345 103.937 38.9536C103.79 39.3547 103.783 39.8031 103.923 40.2029C104.203 39.8238 104.408 39.3826 104.499 38.9196C104.512 38.8625 104.527 38.7993 104.505 38.7434ZM108.041 23.3786C108.301 23.5609 108.722 23.358 108.75 23.042C108.778 22.726 108.392 22.4599 108.104 22.5996C107.824 22.7333 107.782 23.1963 108.041 23.3786ZM99.6145 47.7523C99.8186 47.7875 99.8818 47.4363 99.7129 47.3172C99.5452 47.1981 99.3204 47.2467 99.1235 47.3038C98.9558 47.3524 98.7662 47.4229 98.7164 47.5906C98.6678 47.7729 98.8501 47.9564 99.0397 47.9771C99.2292 47.9977 99.4115 47.9139 99.5865 47.83M110.153 48.8047C110.209 48.8326 110.265 48.7415 110.23 48.6856C110.195 48.6297 110.125 48.6151 110.062 48.6078C109.858 48.5799 109.634 48.5665 109.452 48.6576C109.269 48.7488 109.129 48.9797 109.227 49.1693C109.318 49.3516 109.585 49.3868 109.767 49.2957C109.949 49.2045 110.07 49.0222 110.174 48.8472M91.02 47.0365C90.8523 47.2406 91.0067 47.6125 91.2728 47.6404C91.5681 47.6818 91.8622 47.3524 91.7504 47.079C91.6447 46.7983 91.161 46.7837 91.0626 47.0644M102.617 37.2984C102.422 37.4102 102.225 37.5233 102.022 37.6278C102.372 37.7056 102.738 37.7408 103.095 37.7262C103.158 37.7262 103.229 37.7189 103.285 37.6849C103.439 37.5865 103.355 37.313 103.179 37.2425C103.004 37.172 102.814 37.2425 102.639 37.3057M124.929 38.2877C125.217 38.4845 125.666 38.3582 125.813 38.0495C125.637 37.9231 125.455 37.7894 125.245 37.7615C125.034 37.7335 124.782 37.8453 124.739 38.0555C124.81 38.126 124.88 38.2038 124.943 38.2731M104.603 40.8276C104.758 40.4484 104.871 40.0486 104.934 39.6342C104.962 39.4665 104.666 39.4179 104.562 39.5576C104.456 39.6974 104.484 39.887 104.484 40.0559C104.484 40.2309 104.428 40.4351 104.267 40.4837C104.378 40.6028 104.491 40.7158 104.603 40.8276ZM118.166 36.6033C118.271 36.4915 118.376 36.3858 118.488 36.274C118.376 35.9167 117.751 35.9167 117.639 36.2667C117.738 36.4708 117.948 36.6033 118.173 36.6179M106.483 40.491C106.546 40.6526 106.821 40.638 106.898 40.4837C106.981 40.3293 106.89 40.1264 106.743 40.0413C106.596 39.9575 106.407 39.9575 106.238 40.0061C106.392 40.1118 106.498 40.3014 106.498 40.491M101.853 38.5684C101.987 38.5198 102.126 38.4627 102.26 38.4141C102.351 38.3788 102.457 38.3363 102.491 38.2451C102.576 38.0555 102.281 37.8878 102.106 37.9863C101.924 38.0774 101.853 38.3023 101.797 38.4979M104.499 37.6071C104.449 37.7894 104.484 37.9936 104.583 38.1479C104.912 38.0142 105.038 37.5512 104.835 37.2632C104.722 37.375 104.61 37.488 104.499 37.5998M34.6457 38.7361C34.5266 38.6523 34.4075 38.5757 34.2957 38.4906C34.1693 38.4068 34.0077 38.3156 33.874 38.3995C33.7197 38.5052 33.8035 38.7714 33.9798 38.8418C34.1548 38.9123 34.3516 38.8418 34.5266 38.7786M103.72 37.5366C103.523 37.5585 103.607 37.9231 103.804 37.9304C104.006 37.9437 104.155 37.7542 104.259 37.5865C104.099 37.488 103.895 37.4528 103.712 37.5014M110.834 34.6115C110.616 34.7233 110.827 35.145 111.044 35.0319C111.262 34.9201 111.051 34.4984 110.834 34.6115Z" fill="#142601"/>
</g>
</svg>
